Coda Normal-ExtraBold.ufo
<glyph name="exclam" format="1">
  <advance width="759"/>
  <unicode hex="0021"/>
  <outline>
    <contour>
      <point x="378" y="525" type="curve" smooth="yes"/>
      <point x="398" y="525"/>
      <point x="419" y="542"/>
      <point x="427" y="582" type="curve" smooth="yes"/>
      <point x="481" y="889"/>
      <point x="585" y="1298"/>
      <point x="585" y="1413" type="curve" smooth="yes"/>
      <point x="585" y="1540"/>
      <point x="490" y="1606"/>
      <point x="376" y="1606" type="curve" smooth="yes"/>
      <point x="265" y="1606"/>
      <point x="174" y="1543"/>
      <point x="174" y="1415" type="curve" smooth="yes"/>
      <point x="174" y="1302"/>
      <point x="273" y="893"/>
      <point x="328" y="582" type="curve" smooth="yes"/>
      <point x="336" y="541"/>
      <point x="357" y="525"/>
    </contour>
    <contour>
      <point x="379" y="-33" type="curve" smooth="yes"/>
      <point x="470" y="-33"/>
      <point x="560" y="30"/>
      <point x="560" y="156" type="curve" smooth="yes"/>
      <point x="560" y="281"/>
      <point x="468" y="345"/>
      <point x="377" y="345" type="curve" smooth="yes"/>
      <point x="286" y="345"/>
      <point x="196" y="282"/>
      <point x="196" y="156" type="curve" smooth="yes"/>
      <point x="196" y="31"/>
      <point x="287" y="-33"/>
    </contour>
  </outline>
</glyph>
<glyph name="numbersign" format="1">
  <advance width="1689"/>
  <unicode hex="0023"/>
  <outline>
    <contour>
      <point x="234" y="0" type="line"/>
      <point x="599" y="0" type="line"/>
      <point x="664" y="419" type="line"/>
      <point x="916" y="419" type="line"/>
      <point x="851" y="0" type="line"/>
      <point x="1216" y="0" type="line"/>
      <point x="1280" y="420" type="line"/>
      <point x="1493" y="420" type="line"/>
      <point x="1518" y="596" type="line"/>
      <point x="1307" y="596" type="line"/>
      <point x="1366" y="981" type="line"/>
      <point x="1570" y="981" type="line"/>
      <point x="1597" y="1171" type="line"/>
      <point x="1397" y="1171" type="line"/>
      <point x="1453" y="1551" type="line"/>
      <point x="1090" y="1551" type="line"/>
      <point x="1032" y="1171" type="line"/>
      <point x="783" y="1171" type="line"/>
      <point x="840" y="1551" type="line"/>
      <point x="474" y="1551" type="line"/>
      <point x="416" y="1171" type="line"/>
      <point x="213" y="1171" type="line"/>
      <point x="185" y="980" type="line"/>
      <point x="384" y="980" type="line"/>
      <point x="326" y="596" type="line"/>
      <point x="131" y="596" type="line"/>
      <point x="105" y="419" type="line"/>
      <point x="298" y="419" type="line"/>
    </contour>
    <contour>
      <point x="692" y="596" type="line"/>
      <point x="751" y="980" type="line"/>
      <point x="1002" y="980" type="line"/>
      <point x="943" y="596" type="line"/>
    </contour>
  </outline>
</glyph>
<glyph name="dollar" format="1">
  <advance width="1313"/>
  <unicode hex="0024"/>
  <outline>
    <contour>
      <point x="725" y="91" type="line"/>
      <point x="725" y="-224" type="line"/>
      <point x="845" y="-224" type="line"/>
      <point x="845" y="91" type="line"/>
    </contour>
    <contour>
      <point x="725" y="1785" type="line"/>
      <point x="725" y="1470" type="line"/>
      <point x="845" y="1470" type="line"/>
      <point x="845" y="1785" type="line"/>
    </contour>
    <component base="S"/>
  </outline>
</glyph>
<glyph name="ampersand" format="1">
  <advance width="1633"/>
  <unicode hex="0026"/>
  <outline>
    <contour>
      <point x="757" y="-22" type="curve" smooth="yes"/>
      <point x="1257" y="-22"/>
      <point x="1375" y="90"/>
      <point x="1374" y="464" type="curve" smooth="yes"/>
      <point x="1374" y="731" type="line"/>
      <point x="1518" y="731" type="line"/>
      <point x="1518" y="896" type="line"/>
      <point x="1374" y="896" type="line"/>
      <point x="1374" y="1022" type="line"/>
      <point x="981" y="1022" type="line"/>
      <point x="981" y="896" type="line"/>
      <point x="718" y="896" type="line" smooth="yes"/>
      <point x="682" y="896"/>
      <point x="599" y="914"/>
      <point x="597" y="1008" type="curve" smooth="yes"/>
      <point x="597" y="1280" type="line" smooth="yes"/>
      <point x="597" y="1347"/>
      <point x="688" y="1369"/>
      <point x="786" y="1369" type="curve" smooth="yes"/>
      <point x="847" y="1369"/>
      <point x="942" y="1367"/>
      <point x="961" y="1357" type="curve" smooth="yes"/>
      <point x="980" y="1347"/>
      <point x="982" y="1231"/>
      <point x="984" y="1198" type="curve"/>
      <point x="1367" y="1216" type="line"/>
      <point x="1367" y="1279" type="line" smooth="yes"/>
      <point x="1367" y="1515"/>
      <point x="1180" y="1577"/>
      <point x="795" y="1577" type="curve" smooth="yes"/>
      <point x="395" y="1577"/>
      <point x="165" y="1517"/>
      <point x="165" y="1175" type="curve" smooth="yes"/>
      <point x="165" y="987"/>
      <point x="231" y="903"/>
      <point x="291" y="873" type="curve" smooth="yes"/>
      <point x="298" y="865"/>
      <point x="379" y="848"/>
      <point x="388" y="843" type="curve"/>
      <point x="388" y="829" type="line"/>
      <point x="376" y="827"/>
      <point x="300" y="811"/>
      <point x="291" y="805" type="curve" smooth="yes"/>
      <point x="183" y="768"/>
      <point x="139" y="588"/>
      <point x="139" y="435" type="curve" smooth="yes"/>
      <point x="139" y="63"/>
      <point x="367" y="-22"/>
    </contour>
    <contour>
      <point x="773" y="198" type="curve" smooth="yes"/>
      <point x="660" y="198"/>
      <point x="571" y="231"/>
      <point x="571" y="301" type="curve" smooth="yes"/>
      <point x="571" y="395"/>
      <point x="572" y="731"/>
      <point x="634" y="731" type="curve" smooth="yes"/>
      <point x="981" y="731" type="line"/>
      <point x="981" y="290" type="line" smooth="yes"/>
      <point x="981" y="229"/>
      <point x="908" y="198"/>
    </contour>
  </outline>
</glyph>
<glyph name="quotesingle" format="1">
  <advance width="724"/>
  <unicode hex="0027"/>
  <outline>
    <contour>
      <point x="398" y="907" type="curve"/>
      <point x="424" y="1018"/>
      <point x="509" y="1323"/>
      <point x="509" y="1421" type="curve" smooth="yes"/>
      <point x="509" y="1523"/>
      <point x="439" y="1575"/>
      <point x="359" y="1575" type="curve" smooth="yes"/>
      <point x="274" y="1575"/>
      <point x="215" y="1525"/>
      <point x="215" y="1416" type="curve" smooth="yes"/>
      <point x="215" y="1322"/>
      <point x="297" y="1022"/>
      <point x="324" y="910" type="curve"/>
      <point x="330" y="887"/>
      <point x="348" y="874"/>
      <point x="361" y="874" type="curve"/>
      <point x="374" y="874"/>
      <point x="393" y="885"/>
    </contour>
  </outline>
</glyph>
<glyph name="parenleft" format="1">
  <advance width="1052"/>
  <unicode hex="0028"/>
  <outline>
    <contour>
      <point x="850" y="-194" type="curve"/>
      <point x="857" y="25" type="line"/>
      <point x="613" y="42"/>
      <point x="523" y="380"/>
      <point x="523" y="785" type="curve" smooth="yes"/>
      <point x="523" y="1191"/>
      <point x="613" y="1539"/>
      <point x="857" y="1556" type="curve"/>
      <point x="850" y="1775" type="line"/>
      <point x="382" y="1761"/>
      <point x="209" y="1291"/>
      <point x="209" y="786" type="curve" smooth="yes"/>
      <point x="209" y="280"/>
      <point x="382" y="-180"/>
    </contour>
  </outline>
</glyph>
<glyph name="parenright" format="1">
  <advance width="1052"/>
  <unicode hex="0029"/>
  <outline>
    <contour>
      <point x="201" y="-194" type="line"/>
      <point x="669" y="-180"/>
      <point x="842" y="281"/>
      <point x="842" y="786" type="curve"/>
      <point x="842" y="1291"/>
      <point x="669" y="1761"/>
      <point x="201" y="1775" type="curve"/>
      <point x="195" y="1556" type="line"/>
      <point x="438" y="1539"/>
      <point x="528" y="1191"/>
      <point x="528" y="785" type="curve" smooth="yes"/>
      <point x="528" y="380"/>
      <point x="438" y="42"/>
      <point x="195" y="25" type="curve"/>
    </contour>
  </outline>
</glyph>
<glyph name="asterisk" format="1">
  <advance width="1313"/>
  <unicode hex="002A"/>
  <outline>
    <contour>
      <point x="453" y="490" type="curve" smooth="yes"/>
      <point x="562" y="490"/>
      <point x="583" y="647"/>
      <point x="654" y="902" type="curve"/>
      <point x="689" y="766"/>
      <point x="726" y="605"/>
      <point x="771" y="540" type="curve" smooth="yes"/>
      <point x="841" y="432"/>
      <point x="989" y="515"/>
      <point x="989" y="616" type="curve" smooth="yes"/>
      <point x="989" y="675"/>
      <point x="879" y="785"/>
      <point x="726" y="940" type="curve"/>
      <point x="839" y="909"/>
      <point x="994" y="858"/>
      <point x="1068" y="858" type="curve" smooth="yes"/>
      <point x="1147" y="858"/>
      <point x="1184" y="913"/>
      <point x="1184" y="980" type="curve" smooth="yes"/>
      <point x="1184" y="1049"/>
      <point x="1145" y="1105"/>
      <point x="1070" y="1105" type="curve" smooth="yes"/>
      <point x="995" y="1105"/>
      <point x="880" y="1066"/>
      <point x="726" y="1021" type="curve"/>
      <point x="897" y="1195"/>
      <point x="984" y="1285"/>
      <point x="984" y="1352" type="curve" smooth="yes"/>
      <point x="984" y="1441"/>
      <point x="851" y="1507"/>
      <point x="793" y="1438" type="curve" smooth="yes"/>
      <point x="717" y="1401"/>
      <point x="680" y="1155"/>
      <point x="654" y="1056" type="curve"/>
      <point x="615" y="1216"/>
      <point x="574" y="1401"/>
      <point x="512" y="1438" type="curve" smooth="yes"/>
      <point x="447" y="1509"/>
      <point x="318" y="1440"/>
      <point x="318" y="1348" type="curve" smooth="yes"/>
      <point x="318" y="1288"/>
      <point x="424" y="1181"/>
      <point x="582" y="1021" type="curve"/>
      <point x="473" y="1051"/>
      <point x="312" y="1105"/>
      <point x="237" y="1105" type="curve" smooth="yes"/>
      <point x="161" y="1105"/>
      <point x="123" y="1049"/>
      <point x="123" y="980" type="curve" smooth="yes"/>
      <point x="123" y="913"/>
      <point x="160" y="858"/>
      <point x="237" y="858" type="curve" smooth="yes"/>
      <point x="309" y="858"/>
      <point x="450" y="902"/>
      <point x="582" y="940" type="curve"/>
      <point x="441" y="798"/>
      <point x="323" y="690"/>
      <point x="323" y="609" type="curve" smooth="yes"/>
      <point x="323" y="548"/>
      <point x="391" y="490"/>
    </contour>
  </outline>
</glyph>
<glyph name="zero" format="1">
  <advance width="1436"/>
  <unicode hex="0030"/>
  <outline>
    <contour>
      <point x="718" y="201" type="curve" smooth="yes"/>
      <point x="631" y="201"/>
      <point x="544" y="222"/>
      <point x="541" y="270" type="curve" smooth="yes"/>
      <point x="538" y="329"/>
      <point x="537" y="709"/>
      <point x="537" y="774" type="curve" smooth="yes"/>
      <point x="537" y="837"/>
      <point x="538" y="1216"/>
      <point x="542" y="1276" type="curve" smooth="yes"/>
      <point x="545" y="1329"/>
      <point x="635" y="1351"/>
      <point x="718" y="1351" type="curve" smooth="yes"/>
      <point x="801" y="1351"/>
      <point x="891" y="1329"/>
      <point x="894" y="1276" type="curve" smooth="yes"/>
      <point x="898" y="1216"/>
      <point x="899" y="837"/>
      <point x="899" y="774" type="curve" smooth="yes"/>
      <point x="899" y="709"/>
      <point x="899" y="329"/>
      <point x="895" y="270" type="curve" smooth="yes"/>
      <point x="892" y="222"/>
      <point x="805" y="201"/>
    </contour>
    <contour>
      <point x="720" y="-21" type="curve" smooth="yes"/>
      <point x="1108" y="-21"/>
      <point x="1304" y="90"/>
      <point x="1304" y="542" type="curve" smooth="yes"/>
      <point x="1304" y="1061" type="line" smooth="yes"/>
      <point x="1304" y="1470"/>
      <point x="1089" y="1572"/>
      <point x="719" y="1572" type="curve" smooth="yes"/>
      <point x="347" y="1572"/>
      <point x="132" y="1468"/>
      <point x="132" y="1039" type="curve" smooth="yes"/>
      <point x="132" y="513" type="line" smooth="yes"/>
      <point x="132" y="88"/>
      <point x="337" y="-21"/>
    </contour>
  </outline>
</glyph>
<glyph name="one" format="1">
  <advance width="1023"/>
  <unicode hex="0031"/>
  <outline>
    <contour>
      <point x="350" y="0" type="line"/>
      <point x="779" y="0" type="line"/>
      <point x="779" y="1551" type="line"/>
      <point x="437" y="1551" type="line"/>
      <point x="369" y="1480"/>
      <point x="267" y="1443"/>
      <point x="144" y="1441" type="curve"/>
      <point x="144" y="1275" type="line"/>
      <point x="350" y="1275" type="line"/>
    </contour>
  </outline>
</glyph>
<glyph name="three" format="1">
  <advance width="1430"/>
  <unicode hex="0033"/>
  <outline>
    <contour>
      <point x="707" y="-21" type="curve" smooth="yes"/>
      <point x="1088" y="-21"/>
      <point x="1292" y="94"/>
      <point x="1292" y="433" type="curve" smooth="yes"/>
      <point x="1292" y="666"/>
      <point x="1216" y="758"/>
      <point x="1102" y="799" type="curve"/>
      <point x="1204" y="830"/>
      <point x="1287" y="893"/>
      <point x="1287" y="1151" type="curve" smooth="yes"/>
      <point x="1287" y="1450"/>
      <point x="1101" y="1572"/>
      <point x="720" y="1572" type="curve" smooth="yes"/>
      <point x="314" y="1572"/>
      <point x="148" y="1463"/>
      <point x="144" y="1149" type="curve" smooth="yes"/>
      <point x="144" y="1092" type="line"/>
      <point x="536" y="1076" type="line"/>
      <point x="536" y="1127"/>
      <point x="540" y="1331"/>
      <point x="547" y="1338" type="curve" smooth="yes"/>
      <point x="562" y="1354"/>
      <point x="661" y="1357"/>
      <point x="719" y="1357" type="curve" smooth="yes"/>
      <point x="822" y="1357"/>
      <point x="881" y="1337"/>
      <point x="881" y="1261" type="curve" smooth="yes"/>
      <point x="881" y="1174"/>
      <point x="880" y="893"/>
      <point x="858" y="893" type="curve" smooth="yes"/>
      <point x="557" y="893" type="line"/>
      <point x="560" y="703" type="line"/>
      <point x="860" y="702" type="line" smooth="yes"/>
      <point x="880" y="702"/>
      <point x="884" y="414"/>
      <point x="884" y="320" type="curve" smooth="yes"/>
      <point x="884" y="220"/>
      <point x="827" y="196"/>
      <point x="707" y="196" type="curve" smooth="yes"/>
      <point x="646" y="196"/>
      <point x="554" y="198"/>
      <point x="540" y="217" type="curve" smooth="yes"/>
      <point x="528" y="231"/>
      <point x="529" y="462"/>
      <point x="529" y="501" type="curve"/>
      <point x="139" y="479" type="line"/>
      <point x="139" y="409" type="line" smooth="yes"/>
      <point x="137" y="93"/>
      <point x="304" y="-21"/>
    </contour>
  </outline>
</glyph>
<glyph name="four" format="1">
  <advance width="1430"/>
  <unicode hex="0034"/>
  <outline>
    <contour>
      <point x="493" y="1551" type="line"/>
      <point x="127" y="607" type="line"/>
      <point x="127" y="303" type="line"/>
      <point x="873" y="303" type="line"/>
      <point x="873" y="0" type="line"/>
      <point x="1248" y="0" type="line"/>
      <point x="1248" y="971" type="line"/>
      <point x="873" y="971" type="line"/>
      <point x="873" y="569" type="line"/>
      <point x="542" y="569" type="line"/>
      <point x="583" y="681" type="line"/>
      <point x="908" y="1551" type="line"/>
    </contour>
  </outline>
</glyph>
<glyph name="five" format="1">
  <advance width="1430"/>
  <unicode hex="0035"/>
  <outline>
    <contour>
      <point x="740" y="-21" type="curve" smooth="yes"/>
      <point x="1175" y="-21"/>
      <point x="1329" y="85"/>
      <point x="1329" y="512" type="curve" smooth="yes"/>
      <point x="1329" y="866"/>
      <point x="1231" y="1040"/>
      <point x="884" y="1040" type="curve" smooth="yes"/>
      <point x="696" y="1040"/>
      <point x="620" y="983"/>
      <point x="568" y="910" type="curve"/>
      <point x="582" y="1315" type="line"/>
      <point x="1214" y="1315" type="line"/>
      <point x="1214" y="1551" type="line"/>
      <point x="227" y="1551" type="line"/>
      <point x="196" y="658" type="line"/>
      <point x="578" y="652" type="line"/>
      <point x="583" y="678"/>
      <point x="592" y="799"/>
      <point x="607" y="808" type="curve" smooth="yes"/>
      <point x="627" y="821"/>
      <point x="709" y="822"/>
      <point x="746" y="822" type="curve" smooth="yes"/>
      <point x="870" y="822"/>
      <point x="925" y="803"/>
      <point x="925" y="705" type="curve" smooth="yes"/>
      <point x="925" y="683"/>
      <point x="926" y="324"/>
      <point x="926" y="305" type="curve" smooth="yes"/>
      <point x="926" y="242"/>
      <point x="859" y="201"/>
      <point x="736" y="201" type="curve" smooth="yes"/>
      <point x="645" y="201"/>
      <point x="574" y="211"/>
      <point x="566" y="271" type="curve" smooth="yes"/>
      <point x="565" y="280"/>
      <point x="564" y="419"/>
      <point x="563" y="431" type="curve"/>
      <point x="181" y="422" type="line"/>
      <point x="181" y="412"/>
      <point x="179" y="359"/>
      <point x="179" y="351" type="curve" smooth="yes"/>
      <point x="177" y="62"/>
      <point x="350" y="-21"/>
    </contour>
  </outline>
</glyph>
<glyph name="six" format="1">
  <advance width="1450"/>
  <unicode hex="0036"/>
  <outline>
    <contour>
      <point x="754" y="-21" type="curve" smooth="yes"/>
      <point x="1189" y="-19"/>
      <point x="1353" y="80"/>
      <point x="1353" y="510" type="curve" smooth="yes"/>
      <point x="1353" y="909"/>
      <point x="1202" y="1018"/>
      <point x="775" y="1018" type="curve" smooth="yes"/>
      <point x="710" y="1018"/>
      <point x="603" y="1006"/>
      <point x="584" y="982" type="curve"/>
      <point x="584" y="1287" type="line" smooth="yes"/>
      <point x="585" y="1343"/>
      <point x="659" y="1361"/>
      <point x="740" y="1361" type="curve" smooth="yes"/>
      <point x="780" y="1361"/>
      <point x="874" y="1359"/>
      <point x="884" y="1350" type="curve" smooth="yes"/>
      <point x="894" y="1340"/>
      <point x="894" y="1176"/>
      <point x="894" y="1143" type="curve"/>
      <point x="1302" y="1159" type="line"/>
      <point x="1303" y="1242" type="line" smooth="yes"/>
      <point x="1307" y="1558"/>
      <point x="1031" y="1581"/>
      <point x="740" y="1581" type="curve" smooth="yes"/>
      <point x="275" y="1581"/>
      <point x="155" y="1432"/>
      <point x="155" y="960" type="curve" smooth="yes"/>
      <point x="155" y="542" type="line" smooth="yes"/>
      <point x="155" y="102"/>
      <point x="300" y="-21"/>
    </contour>
    <contour>
      <point x="747" y="207" type="curve" smooth="yes"/>
      <point x="647" y="207"/>
      <point x="584" y="234"/>
      <point x="583" y="291" type="curve" smooth="yes"/>
      <point x="582" y="696" type="line" smooth="yes"/>
      <point x="582" y="758"/>
      <point x="639" y="788"/>
      <point x="748" y="788" type="curve" smooth="yes"/>
      <point x="851" y="788"/>
      <point x="918" y="772"/>
      <point x="918" y="698" type="curve" smooth="yes"/>
      <point x="918" y="279" type="line" smooth="yes"/>
      <point x="918" y="226"/>
      <point x="848" y="207"/>
    </contour>
  </outline>
</glyph>
<glyph name="eight" format="1">
  <advance width="1450"/>
  <unicode hex="0038"/>
  <outline>
    <contour>
      <point x="724" y="-21" type="curve" smooth="yes"/>
      <point x="1152" y="-21"/>
      <point x="1350" y="53"/>
      <point x="1350" y="405" type="curve" smooth="yes"/>
      <point x="1350" y="700"/>
      <point x="1279" y="764"/>
      <point x="1123" y="835" type="curve"/>
      <point x="1235" y="884"/>
      <point x="1266" y="1002"/>
      <point x="1266" y="1182" type="curve" smooth="yes"/>
      <point x="1266" y="1488"/>
      <point x="1139" y="1581"/>
      <point x="723" y="1581" type="curve" smooth="yes"/>
      <point x="301" y="1581"/>
      <point x="175" y="1488"/>
      <point x="175" y="1182" type="curve" smooth="yes"/>
      <point x="175" y="1002"/>
      <point x="205" y="884"/>
      <point x="316" y="835" type="curve"/>
      <point x="161" y="764"/>
      <point x="91" y="700"/>
      <point x="91" y="405" type="curve" smooth="yes"/>
      <point x="91" y="52"/>
      <point x="289" y="-21"/>
    </contour>
    <contour>
      <point x="723" y="206" type="curve" smooth="yes"/>
      <point x="519" y="206"/>
      <point x="498" y="265"/>
      <point x="498" y="395" type="curve" smooth="yes"/>
      <point x="498" y="490" type="line" smooth="yes"/>
      <point x="498" y="700"/>
      <point x="562" y="702"/>
      <point x="724" y="702" type="curve" smooth="yes"/>
      <point x="879" y="702"/>
      <point x="944" y="699"/>
      <point x="944" y="490" type="curve" smooth="yes"/>
      <point x="944" y="395" type="line" smooth="yes"/>
      <point x="944" y="265"/>
      <point x="922" y="206"/>
    </contour>
    <contour>
      <point x="627" y="895" type="line"/>
      <point x="560" y="951"/>
      <point x="551" y="1030"/>
      <point x="551" y="1172" type="curve" smooth="yes"/>
      <point x="551" y="1334"/>
      <point x="590" y="1350"/>
      <point x="724" y="1350" type="curve" smooth="yes"/>
      <point x="852" y="1350"/>
      <point x="890" y="1333"/>
      <point x="890" y="1172" type="curve" smooth="yes"/>
      <point x="890" y="1019"/>
      <point x="874" y="951"/>
      <point x="807" y="895" type="curve"/>
    </contour>
  </outline>
</glyph>
<glyph name="nine" format="1">
  <advance width="1450"/>
  <unicode hex="0039"/>
  <outline>
    <contour>
      <point x="740" y="-21" type="curve" smooth="yes"/>
      <point x="1187" y="-21"/>
      <point x="1325" y="120"/>
      <point x="1325" y="576" type="curve" smooth="yes"/>
      <point x="1325" y="1018" type="line" smooth="yes"/>
      <point x="1325" y="1465"/>
      <point x="1208" y="1581"/>
      <point x="719" y="1581" type="curve" smooth="yes"/>
      <point x="327" y="1581"/>
      <point x="127" y="1495"/>
      <point x="127" y="1049" type="curve" smooth="yes"/>
      <point x="127" y="663"/>
      <point x="245" y="519"/>
      <point x="630" y="519" type="curve" smooth="yes"/>
      <point x="695" y="519"/>
      <point x="871" y="531"/>
      <point x="889" y="555" type="curve"/>
      <point x="889" y="274" type="line" smooth="yes"/>
      <point x="889" y="217"/>
      <point x="816" y="200"/>
      <point x="735" y="200" type="curve" smooth="yes"/>
      <point x="695" y="200"/>
      <point x="602" y="201"/>
      <point x="592" y="211" type="curve" smooth="yes"/>
      <point x="582" y="221"/>
      <point x="581" y="358"/>
      <point x="581" y="391" type="curve"/>
      <point x="174" y="375" type="line"/>
      <point x="173" y="299" type="line" smooth="yes"/>
      <point x="165" y="12"/>
      <point x="459" y="-21"/>
    </contour>
    <contour>
      <point x="726" y="750" type="curve" smooth="yes"/>
      <point x="622" y="750"/>
      <point x="558" y="765"/>
      <point x="558" y="840" type="curve" smooth="yes"/>
      <point x="558" y="1283" type="line" smooth="yes"/>
      <point x="558" y="1336"/>
      <point x="625" y="1355"/>
      <point x="726" y="1355" type="curve" smooth="yes"/>
      <point x="826" y="1355"/>
      <point x="886" y="1328"/>
      <point x="887" y="1271" type="curve" smooth="yes"/>
      <point x="888" y="842" type="line" smooth="yes"/>
      <point x="888" y="780"/>
      <point x="834" y="750"/>
    </contour>
  </outline>
</glyph>
<glyph name="colon" format="1">
  <advance width="809"/>
  <unicode hex="003A"/>
  <outline>
    <contour>
      <point x="401" y="123" type="curve" smooth="yes"/>
      <point x="489" y="123"/>
      <point x="578" y="185"/>
      <point x="578" y="308" type="curve" smooth="yes"/>
      <point x="578" y="432"/>
      <point x="489" y="494"/>
      <point x="400" y="494" type="curve" smooth="yes"/>
      <point x="312" y="494"/>
      <point x="224" y="433"/>
      <point x="224" y="308" type="curve" smooth="yes"/>
      <point x="224" y="184"/>
      <point x="312" y="123"/>
    </contour>
    <contour>
      <point x="402" y="924" type="curve" smooth="yes"/>
      <point x="490" y="924"/>
      <point x="578" y="986"/>
      <point x="578" y="1110" type="curve" smooth="yes"/>
      <point x="578" y="1234"/>
      <point x="489" y="1296"/>
      <point x="401" y="1296" type="curve" smooth="yes"/>
      <point x="312" y="1296"/>
      <point x="224" y="1235"/>
      <point x="224" y="1110" type="curve" smooth="yes"/>
      <point x="224" y="986"/>
      <point x="313" y="924"/>
    </contour>
  </outline>
</glyph>
<glyph name="semicolon" format="1">
  <advance width="891"/>
  <unicode hex="003B"/>
  <outline>
    <contour>
      <point x="316" y="-114" type="curve" smooth="yes"/>
      <point x="509" y="-114"/>
      <point x="632" y="96"/>
      <point x="632" y="275" type="curve" smooth="yes"/>
      <point x="632" y="392"/>
      <point x="570" y="494"/>
      <point x="445" y="494" type="curve" smooth="yes"/>
      <point x="347" y="494"/>
      <point x="261" y="426"/>
      <point x="261" y="310" type="curve" smooth="yes"/>
      <point x="261" y="196"/>
      <point x="339" y="126"/>
      <point x="428" y="119" type="curve"/>
      <point x="424" y="38"/>
      <point x="349" y="-14"/>
      <point x="267" y="-15" type="curve"/>
      <point x="267" y="-110" type="line"/>
      <point x="280" y="-113"/>
      <point x="297" y="-114"/>
    </contour>
    <contour>
      <point x="445" y="924" type="curve" smooth="yes"/>
      <point x="542" y="924"/>
      <point x="627" y="992"/>
      <point x="627" y="1115" type="curve" smooth="yes"/>
      <point x="627" y="1236"/>
      <point x="540" y="1306"/>
      <point x="445" y="1306" type="curve" smooth="yes"/>
      <point x="347" y="1306"/>
      <point x="262" y="1236"/>
      <point x="262" y="1115" type="curve" smooth="yes"/>
      <point x="262" y="994"/>
      <point x="349" y="924"/>
    </contour>
  </outline>
</glyph>
<glyph name="less" format="1">
  <advance width="1207"/>
  <unicode hex="003C"/>
  <outline>
    <contour>
      <point x="993" y="98" type="line"/>
      <point x="993" y="486" type="line"/>
      <point x="426" y="740" type="line"/>
      <point x="993" y="985" type="line"/>
      <point x="993" y="1377" type="line"/>
      <point x="193" y="946" type="line"/>
      <point x="193" y="523" type="line"/>
    </contour>
  </outline>
</glyph>
<glyph name="equal" format="1">
  <advance width="1232"/>
  <unicode hex="003D"/>
  <outline>
    <contour>
      <point x="196" y="132" type="line"/>
      <point x="1065" y="132" type="line"/>
      <point x="1065" y="406" type="line"/>
      <point x="196" y="406" type="line"/>
    </contour>
    <contour>
      <point x="196" y="616" type="line"/>
      <point x="1065" y="616" type="line"/>
      <point x="1065" y="890" type="line"/>
      <point x="196" y="890" type="line"/>
    </contour>
  </outline>
</glyph>
<glyph name="question" format="1">
  <advance width="997"/>
  <unicode hex="003F"/>
  <outline>
    <contour>
      <point x="413" y="487" type="curve" smooth="yes"/>
      <point x="444" y="487"/>
      <point x="468" y="502"/>
      <point x="472" y="538" type="curve"/>
      <point x="482" y="637"/>
      <point x="530" y="718"/>
      <point x="595" y="800" type="curve" smooth="yes"/>
      <point x="723" y="964"/>
      <point x="893" y="1078"/>
      <point x="893" y="1269" type="curve" smooth="yes"/>
      <point x="893" y="1455"/>
      <point x="781" y="1595"/>
      <point x="478" y="1595" type="curve" smooth="yes"/>
      <point x="388" y="1595"/>
      <point x="279" y="1573"/>
      <point x="146" y="1526" type="curve"/>
      <point x="177" y="1242" type="line"/>
      <point x="271" y="1274"/>
      <point x="335" y="1287"/>
      <point x="383" y="1287" type="curve" smooth="yes"/>
      <point x="491" y="1287"/>
      <point x="538" y="1228"/>
      <point x="538" y="1150" type="curve" smooth="yes"/>
      <point x="538" y="1078"/>
      <point x="499" y="994"/>
      <point x="453" y="900" type="curve" smooth="yes"/>
      <point x="394" y="791"/>
      <point x="355" y="692"/>
      <point x="355" y="548" type="curve"/>
      <point x="355" y="512"/>
      <point x="374" y="487"/>
    </contour>
    <contour>
      <point x="412" y="-36" type="curve" smooth="yes"/>
      <point x="503" y="-36"/>
      <point x="594" y="26"/>
      <point x="594" y="153" type="curve" smooth="yes"/>
      <point x="594" y="278"/>
      <point x="502" y="341"/>
      <point x="410" y="341" type="curve" smooth="yes"/>
      <point x="320" y="341"/>
      <point x="229" y="279"/>
      <point x="229" y="153" type="curve" smooth="yes"/>
      <point x="229" y="27"/>
      <point x="321" y="-36"/>
    </contour>
  </outline>
</glyph>
<glyph name="at" format="1">
  <advance width="2222"/>
  <unicode hex="0040"/>
  <outline>
    <contour>
      <point x="1156" y="-326" type="curve" smooth="yes"/>
      <point x="1376" y="-326"/>
      <point x="1606" y="-283"/>
      <point x="1755" y="-204" type="curve"/>
      <point x="1698" y="-36" type="line"/>
      <point x="1507" y="-113"/>
      <point x="1300" y="-139"/>
      <point x="1192" y="-139" type="curve" smooth="yes"/>
      <point x="598" y="-139"/>
      <point x="431" y="88"/>
      <point x="431" y="678" type="curve" smooth="yes"/>
      <point x="431" y="1191"/>
      <point x="592" y="1449"/>
      <point x="1160" y="1449" type="curve" smooth="yes"/>
      <point x="1647" y="1449"/>
      <point x="1805" y="1278"/>
      <point x="1805" y="763" type="curve" smooth="yes"/>
      <point x="1805" y="628"/>
      <point x="1793" y="324"/>
      <point x="1767" y="306" type="curve"/>
      <point x="1751" y="296"/>
      <point x="1625" y="295"/>
      <point x="1586" y="295" type="curve"/>
      <point x="1586" y="869" type="line" smooth="yes"/>
      <point x="1586" y="1128"/>
      <point x="1472" y="1225"/>
      <point x="1163" y="1225" type="curve" smooth="yes"/>
      <point x="895" y="1225"/>
      <point x="717" y="1190"/>
      <point x="719" y="965" type="curve" smooth="yes"/>
      <point x="719" y="953"/>
      <point x="721" y="901"/>
      <point x="724" y="887" type="curve"/>
      <point x="1043" y="887" type="line"/>
      <point x="1041" y="908"/>
      <point x="1036" y="1012"/>
      <point x="1047" y="1025" type="curve" smooth="yes"/>
      <point x="1059" y="1040"/>
      <point x="1107" y="1042"/>
      <point x="1156" y="1042" type="curve"/>
      <point x="1230" y="1042"/>
      <point x="1268" y="1035"/>
      <point x="1268" y="983" type="curve" smooth="yes"/>
      <point x="1268" y="755" type="line"/>
      <point x="1205" y="766"/>
      <point x="1046" y="769"/>
      <point x="1003" y="769" type="curve" smooth="yes"/>
      <point x="749" y="767"/>
      <point x="670" y="624"/>
      <point x="674" y="417" type="curve" smooth="yes"/>
      <point x="678" y="198"/>
      <point x="790" y="120"/>
      <point x="1025" y="120" type="curve" smooth="yes"/>
      <point x="1190" y="120"/>
      <point x="1261" y="181"/>
      <point x="1306" y="263" type="curve"/>
      <point x="1348" y="171"/>
      <point x="1444" y="117"/>
      <point x="1577" y="116" type="curve" smooth="yes"/>
      <point x="2002" y="116"/>
      <point x="2075" y="361"/>
      <point x="2075" y="786" type="curve" smooth="yes"/>
      <point x="2075" y="1419"/>
      <point x="1828" y="1650"/>
      <point x="1150" y="1650" type="curve" smooth="yes"/>
      <point x="481" y="1650"/>
      <point x="167" y="1392"/>
      <point x="167" y="663" type="curve" smooth="yes"/>
      <point x="167" y="-107"/>
      <point x="547" y="-326"/>
    </contour>
    <contour>
      <point x="1144" y="293" type="curve" smooth="yes"/>
      <point x="1047" y="293"/>
      <point x="1008" y="311"/>
      <point x="1008" y="360" type="curve" smooth="yes"/>
      <point x="1008" y="449"/>
      <point x="1027" y="638"/>
      <point x="1095" y="638" type="curve" smooth="yes"/>
      <point x="1268" y="639" type="line"/>
      <point x="1267" y="386" type="line" smooth="yes"/>
      <point x="1267" y="339"/>
      <point x="1210" y="293"/>
    </contour>
  </outline>
</glyph>
<glyph name="B" format="1">
  <advance width="1548"/>
  <unicode hex="0042"/>
  <outline>
    <contour>
      <point x="786" y="1551" type="move" name="top"/>
    </contour>
    <contour>
      <point x="186" y="0" type="line"/>
      <point x="899" y="0" type="line" smooth="yes"/>
      <point x="1306" y="0"/>
      <point x="1431" y="63"/>
      <point x="1431" y="447" type="curve" smooth="yes"/>
      <point x="1431" y="637"/>
      <point x="1377" y="805"/>
      <point x="1099" y="836" type="curve"/>
      <point x="1099" y="844" type="line"/>
      <point x="1322" y="874"/>
      <point x="1385" y="968"/>
      <point x="1385" y="1171" type="curve"/>
      <point x="1385" y="1231" type="line" smooth="yes"/>
      <point x="1377" y="1506"/>
      <point x="1181" y="1551"/>
      <point x="915" y="1551" type="curve" smooth="yes"/>
      <point x="186" y="1551" type="line"/>
    </contour>
    <contour>
      <point x="621" y="200" type="line"/>
      <point x="621" y="753" type="line"/>
      <point x="766" y="753" type="line" smooth="yes"/>
      <point x="946" y="753"/>
      <point x="993" y="741"/>
      <point x="995" y="647" type="curve" smooth="yes"/>
      <point x="996" y="281" type="line" smooth="yes"/>
      <point x="996" y="219"/>
      <point x="924" y="200"/>
      <point x="828" y="200" type="curve" smooth="yes"/>
    </contour>
    <contour>
      <point x="621" y="913" type="line"/>
      <point x="621" y="1350" type="line"/>
      <point x="783" y="1350" type="line" smooth="yes"/>
      <point x="919" y="1350"/>
      <point x="972" y="1345"/>
      <point x="972" y="1274" type="curve" smooth="yes"/>
      <point x="972" y="967" type="line" smooth="yes"/>
      <point x="972" y="932"/>
      <point x="904" y="913"/>
      <point x="754" y="913" type="curve" smooth="yes"/>
    </contour>
  </outline>
</glyph>
<glyph name="C" format="1">
  <advance width="1587"/>
  <unicode hex="0043"/>
  <outline>
    <contour>
      <point x="810" y="1559" type="move" name="top"/>
    </contour>
    <contour>
      <point x="810" y="0" type="move" name="bot"/>
    </contour>
    <contour>
      <point x="165" y="1159" type="curve" smooth="yes"/>
      <point x="163" y="1128"/>
      <point x="162" y="824"/>
      <point x="162" y="781" type="curve" smooth="yes"/>
      <point x="162" y="741"/>
      <point x="162" y="435"/>
      <point x="165" y="405" type="curve" smooth="yes"/>
      <point x="175" y="38"/>
      <point x="493" y="-21"/>
      <point x="835" y="-21" type="curve" smooth="yes"/>
      <point x="1147" y="-21"/>
      <point x="1441" y="25"/>
      <point x="1450" y="369" type="curve" smooth="yes"/>
      <point x="1453" y="565" type="line"/>
      <point x="995" y="584" type="line"/>
      <point x="992" y="540"/>
      <point x="992" y="253"/>
      <point x="978" y="235" type="curve" smooth="yes"/>
      <point x="965" y="218"/>
      <point x="881" y="211"/>
      <point x="822" y="211" type="curve" smooth="yes"/>
      <point x="721" y="211"/>
      <point x="636" y="230"/>
      <point x="633" y="265" type="curve" smooth="yes"/>
      <point x="630" y="307"/>
      <point x="630" y="708"/>
      <point x="630" y="751" type="curve" smooth="yes"/>
      <point x="630" y="814"/>
      <point x="630" y="1231"/>
      <point x="633" y="1290" type="curve" smooth="yes"/>
      <point x="636" y="1339"/>
      <point x="736" y="1344"/>
      <point x="822" y="1344" type="curve" smooth="yes"/>
      <point x="869" y="1344"/>
      <point x="952" y="1343"/>
      <point x="968" y="1330" type="curve" smooth="yes"/>
      <point x="984" y="1316"/>
      <point x="989" y="1031"/>
      <point x="994" y="978" type="curve"/>
      <point x="1452" y="1001" type="line"/>
      <point x="1450" y="1189" type="line" smooth="yes"/>
      <point x="1439" y="1541"/>
      <point x="1143" y="1581"/>
      <point x="827" y="1581" type="curve" smooth="yes"/>
      <point x="473" y="1581"/>
      <point x="174" y="1530"/>
    </contour>
  </outline>
</glyph>
<glyph name="E" format="1">
  <advance width="1220"/>
  <unicode hex="0045"/>
  <outline>
    <contour>
      <point x="617" y="1551" type="move" name="top"/>
    </contour>
    <contour>
      <point x="676" y="0" type="move" name="ogonek"/>
    </contour>
    <contour>
      <point x="617" y="0" type="move" name="bot"/>
    </contour>
    <contour>
      <point x="186" y="1551" type="line"/>
      <point x="186" y="0" type="line"/>
      <point x="1089" y="0" type="line"/>
      <point x="1097" y="210" type="line"/>
      <point x="622" y="210" type="line"/>
      <point x="622" y="704" type="line"/>
      <point x="1040" y="704" type="line"/>
      <point x="1040" y="917" type="line"/>
      <point x="622" y="917" type="line"/>
      <point x="622" y="1342" type="line"/>
      <point x="1100" y="1342" type="line"/>
      <point x="1085" y="1551" type="line"/>
    </contour>
  </outline>
</glyph>
<glyph name="F" format="1">
  <advance width="1165"/>
  <unicode hex="0046"/>
  <outline>
    <contour>
      <point x="617" y="1551" type="move" name="top"/>
    </contour>
    <contour>
      <point x="596" y="0" type="move" name="bot"/>
    </contour>
    <contour>
      <point x="186" y="1551" type="line"/>
      <point x="186" y="0" type="line"/>
      <point x="622" y="0" type="line"/>
      <point x="622" y="698" type="line"/>
      <point x="1026" y="698" type="line"/>
      <point x="1026" y="910" type="line"/>
      <point x="622" y="910" type="line"/>
      <point x="622" y="1342" type="line"/>
      <point x="1084" y="1342" type="line"/>
      <point x="1069" y="1551" type="line"/>
    </contour>
  </outline>
</glyph>
<glyph name="H" format="1">
  <advance width="1660"/>
  <unicode hex="0048"/>
  <outline>
    <contour>
      <point x="830" y="1559" type="move" name="top"/>
    </contour>
    <contour>
      <point x="830" y="0" type="move" name="bot"/>
    </contour>
    <contour>
      <point x="832" y="780" type="move" name="center"/>
    </contour>
    <contour>
      <point x="1007" y="1559" type="line"/>
      <point x="1007" y="886" type="line"/>
      <point x="653" y="886" type="line"/>
      <point x="653" y="1559" type="line"/>
      <point x="185" y="1559" type="line"/>
      <point x="185" y="0" type="line"/>
      <point x="653" y="0" type="line"/>
      <point x="653" y="687" type="line"/>
      <point x="1007" y="687" type="line"/>
      <point x="1007" y="0" type="line"/>
      <point x="1475" y="0" type="line"/>
      <point x="1475" y="1559" type="line"/>
    </contour>
  </outline>
</glyph>
<glyph name="I" format="1">
  <advance width="787"/>
  <unicode hex="0049"/>
  <outline>
    <contour>
      <point x="394" y="1551" type="move" name="top"/>
    </contour>
    <contour>
      <point x="403" y="0" type="move" name="ogonek"/>
    </contour>
    <contour>
      <point x="394" y="0" type="move" name="bot"/>
    </contour>
    <contour>
      <point x="176" y="1551" type="line"/>
      <point x="176" y="0" type="line"/>
      <point x="611" y="0" type="line"/>
      <point x="611" y="1551" type="line"/>
    </contour>
  </outline>
</glyph>
<glyph name="K" format="1">
  <advance width="1583"/>
  <unicode hex="004B"/>
  <outline>
    <contour>
      <point x="805" y="1551" type="move" name="top"/>
    </contour>
    <contour>
      <point x="805" y="0" type="move" name="bot"/>
    </contour>
    <contour>
      <point x="1035" y="1551" type="line"/>
      <point x="706" y="956" type="line"/>
      <point x="620" y="798" type="line"/>
      <point x="622" y="980" type="line"/>
      <point x="622" y="1551" type="line"/>
      <point x="186" y="1551" type="line"/>
      <point x="186" y="0" type="line"/>
      <point x="622" y="0" type="line"/>
      <point x="622" y="575" type="line"/>
      <point x="689" y="690" type="line"/>
      <point x="1072" y="0" type="line"/>
      <point x="1551" y="0" type="line"/>
      <point x="1066" y="815" type="line"/>
      <point x="1495" y="1551" type="line"/>
    </contour>
  </outline>
</glyph>
<glyph name="N" format="1">
  <advance width="1641"/>
  <unicode hex="004E"/>
  <outline>
    <contour>
      <point x="829" y="1551" type="move" name="top"/>
    </contour>
    <contour>
      <point x="821" y="0" type="move" name="bot"/>
    </contour>
    <contour>
      <point x="1123" y="1551" type="line"/>
      <point x="1123" y="608" type="line"/>
      <point x="572" y="1551" type="line"/>
      <point x="186" y="1551" type="line"/>
      <point x="186" y="0" type="line"/>
      <point x="521" y="0" type="line"/>
      <point x="521" y="907" type="line"/>
      <point x="1054" y="0" type="line"/>
      <point x="1455" y="0" type="line"/>
      <point x="1455" y="1551" type="line"/>
    </contour>
  </outline>
</glyph>
<glyph name="O" format="1">
  <advance width="1629"/>
  <unicode hex="004F"/>
  <outline>
    <contour>
      <point x="814" y="1559" type="move" name="top"/>
    </contour>
    <contour>
      <point x="933" y="0" type="move" name="ogonek"/>
    </contour>
    <contour>
      <point x="814" y="0" type="move" name="bot"/>
    </contour>
    <contour>
      <point x="815" y="212" type="curve" smooth="yes"/>
      <point x="702" y="212"/>
      <point x="634" y="228"/>
      <point x="632" y="301" type="curve" smooth="yes"/>
      <point x="630" y="332"/>
      <point x="630" y="724"/>
      <point x="630" y="780" type="curve" smooth="yes"/>
      <point x="630" y="836"/>
      <point x="630" y="1228"/>
      <point x="632" y="1259" type="curve" smooth="yes"/>
      <point x="634" y="1332"/>
      <point x="702" y="1348"/>
      <point x="815" y="1348" type="curve" smooth="yes"/>
      <point x="929" y="1348"/>
      <point x="996" y="1332"/>
      <point x="998" y="1259" type="curve" smooth="yes"/>
      <point x="999" y="1228"/>
      <point x="999" y="836"/>
      <point x="999" y="780" type="curve" smooth="yes"/>
      <point x="999" y="724"/>
      <point x="999" y="332"/>
      <point x="998" y="301" type="curve" smooth="yes"/>
      <point x="996" y="228"/>
      <point x="929" y="212"/>
    </contour>
    <contour>
      <point x="812" y="-21" type="curve" smooth="yes"/>
      <point x="1181" y="-21"/>
      <point x="1467" y="48"/>
      <point x="1467" y="487" type="curve" smooth="yes"/>
      <point x="1467" y="1072" type="line" smooth="yes"/>
      <point x="1467" y="1510"/>
      <point x="1162" y="1581"/>
      <point x="812" y="1581" type="curve" smooth="yes"/>
      <point x="444" y="1581"/>
      <point x="162" y="1506"/>
      <point x="162" y="1072" type="curve" smooth="yes"/>
      <point x="162" y="487" type="line" smooth="yes"/>
      <point x="162" y="47"/>
      <point x="432" y="-21"/>
    </contour>
  </outline>
</glyph>
<glyph name="P" format="1">
  <advance width="1524"/>
  <unicode hex="0050"/>
  <outline>
    <contour>
      <point x="772" y="1551" type="move" name="top"/>
    </contour>
    <contour>
      <point x="772" y="0" type="move" name="bot"/>
    </contour>
    <contour>
      <point x="186" y="0" type="line"/>
      <point x="621" y="0" type="line"/>
      <point x="621" y="452" type="line"/>
      <point x="876" y="452" type="line" smooth="yes"/>
      <point x="1159" y="452"/>
      <point x="1407" y="489"/>
      <point x="1410" y="871" type="curve" smooth="yes"/>
      <point x="1410" y="1120" type="line" smooth="yes"/>
      <point x="1410" y="1498"/>
      <point x="1182" y="1551"/>
      <point x="851" y="1551" type="curve" smooth="yes"/>
      <point x="186" y="1551" type="line"/>
    </contour>
    <contour>
      <point x="621" y="646" type="line"/>
      <point x="621" y="1353" type="line"/>
      <point x="837" y="1353" type="line" smooth="yes"/>
      <point x="865" y="1353"/>
      <point x="934" y="1349"/>
      <point x="947" y="1339" type="curve" smooth="yes"/>
      <point x="969" y="1322"/>
      <point x="973" y="1074"/>
      <point x="974" y="1003" type="curve" smooth="yes"/>
      <point x="974" y="938"/>
      <point x="974" y="683"/>
      <point x="945" y="663" type="curve" smooth="yes"/>
      <point x="929" y="652"/>
      <point x="856" y="646"/>
      <point x="820" y="646" type="curve" smooth="yes"/>
    </contour>
  </outline>
</glyph>
<glyph name="Q" format="1">
  <advance width="1606"/>
  <unicode hex="0051"/>
  <outline>
    <contour>
      <point x="763" y="62" type="line"/>
      <point x="1071" y="-399" type="line"/>
      <point x="1318" y="-260" type="line"/>
      <point x="1087" y="103" type="line"/>
    </contour>
    <component base="O"/>
  </outline>
</glyph>
<glyph name="R" format="1">
  <advance width="1584"/>
  <unicode hex="0052"/>
  <outline>
    <contour>
      <point x="790" y="1551" type="move" name="top"/>
    </contour>
    <contour>
      <point x="790" y="0" type="move" name="bot"/>
    </contour>
    <contour>
      <point x="186" y="0" type="line"/>
      <point x="621" y="0" type="line"/>
      <point x="621" y="646" type="line"/>
      <point x="851" y="646" type="line" smooth="yes"/>
      <point x="914" y="646"/>
      <point x="957" y="575"/>
      <point x="967" y="505" type="curve" smooth="yes"/>
      <point x="993" y="0" type="line"/>
      <point x="1436" y="0" type="line"/>
      <point x="1403" y="449" type="line" smooth="yes"/>
      <point x="1393" y="606"/>
      <point x="1317" y="726"/>
      <point x="1099" y="755" type="curve"/>
      <point x="1099" y="759" type="line" smooth="yes"/>
      <point x="1337" y="787"/>
      <point x="1413" y="906"/>
      <point x="1413" y="1148" type="curve" smooth="yes"/>
      <point x="1413" y="1488"/>
      <point x="1237" y="1551"/>
      <point x="907" y="1551" type="curve" smooth="yes"/>
      <point x="186" y="1551" type="line"/>
    </contour>
    <contour>
      <point x="621" y="847" type="line"/>
      <point x="621" y="1349" type="line"/>
      <point x="863" y="1349" type="line" smooth="yes"/>
      <point x="981" y="1349"/>
      <point x="987" y="1193"/>
      <point x="987" y="1105" type="curve" smooth="yes"/>
      <point x="987" y="1010"/>
      <point x="975" y="847"/>
      <point x="868" y="847" type="curve" smooth="yes"/>
    </contour>
  </outline>
</glyph>
<glyph name="S" format="1">
  <advance width="1518"/>
  <unicode hex="0053"/>
  <outline>
    <contour>
      <point x="750" y="1551" type="move" name="top"/>
    </contour>
    <contour>
      <point x="750" y="0" type="move" name="bot"/>
    </contour>
    <contour>
      <point x="755" y="-21" type="curve" smooth="yes"/>
      <point x="1219" y="-21"/>
      <point x="1366" y="62"/>
      <point x="1366" y="500" type="curve" smooth="yes"/>
      <point x="1366" y="834"/>
      <point x="1190" y="910"/>
      <point x="940" y="956" type="curve" smooth="yes"/>
      <point x="703" y="998" type="line"/>
      <point x="612" y="1016"/>
      <point x="597" y="1029"/>
      <point x="588" y="1060" type="curve" smooth="yes"/>
      <point x="575" y="1072"/>
      <point x="572" y="1205"/>
      <point x="572" y="1234" type="curve" smooth="yes"/>
      <point x="572" y="1324"/>
      <point x="636" y="1340"/>
      <point x="756" y="1340" type="curve" smooth="yes"/>
      <point x="816" y="1340"/>
      <point x="893" y="1337"/>
      <point x="907" y="1324" type="curve" smooth="yes"/>
      <point x="921" y="1311"/>
      <point x="920" y="1204"/>
      <point x="923" y="1166" type="curve"/>
      <point x="1309" y="1201" type="line"/>
      <point x="1309" y="1537"/>
      <point x="1145" y="1572"/>
      <point x="735" y="1572" type="curve" smooth="yes"/>
      <point x="307" y="1572"/>
      <point x="156" y="1493"/>
      <point x="156" y="1097" type="curve" smooth="yes"/>
      <point x="156" y="834"/>
      <point x="255" y="736"/>
      <point x="482" y="683" type="curve" smooth="yes"/>
      <point x="764" y="622" type="line"/>
      <point x="829" y="605"/>
      <point x="900" y="588"/>
      <point x="900" y="558" type="curve" smooth="yes"/>
      <point x="925" y="553"/>
      <point x="929" y="386"/>
      <point x="930" y="318" type="curve" smooth="yes"/>
      <point x="930" y="224"/>
      <point x="867" y="207"/>
      <point x="748" y="207" type="curve" smooth="yes"/>
      <point x="678" y="207"/>
      <point x="596" y="212"/>
      <point x="581" y="229" type="curve" smooth="yes"/>
      <point x="566" y="246"/>
      <point x="567" y="399"/>
      <point x="561" y="445" type="curve"/>
      <point x="151" y="410" type="line"/>
      <point x="157" y="42"/>
      <point x="276" y="-21"/>
    </contour>
  </outline>
</glyph>
<glyph name="T" format="1">
  <advance width="1240"/>
  <unicode hex="0054"/>
  <outline>
    <contour>
      <point x="621" y="1551" type="move" name="top"/>
    </contour>
    <contour>
      <point x="621" y="0" type="move" name="bot"/>
    </contour>
    <contour>
      <point x="620" y="862" type="move" name="mid"/>
    </contour>
    <contour>
      <point x="35" y="1551" type="line"/>
      <point x="35" y="1330" type="line"/>
      <point x="400" y="1330" type="line"/>
      <point x="400" y="0" type="line"/>
      <point x="835" y="0" type="line"/>
      <point x="835" y="1330" type="line"/>
      <point x="1205" y="1330" type="line"/>
      <point x="1205" y="1551" type="line"/>
    </contour>
  </outline>
</glyph>
<glyph name="U" format="1">
  <advance width="1600"/>
  <unicode hex="0055"/>
  <outline>
    <contour>
      <point x="800" y="1559" type="move" name="top"/>
    </contour>
    <contour>
      <point x="905" y="0" type="move" name="ogonek"/>
    </contour>
    <contour>
      <point x="800" y="0" type="move" name="bot"/>
    </contour>
    <contour>
      <point x="153" y="1559" type="line"/>
      <point x="153" y="447" type="line" smooth="yes"/>
      <point x="153" y="31"/>
      <point x="471" y="-21"/>
      <point x="798" y="-21" type="curve" smooth="yes"/>
      <point x="1148" y="-21"/>
      <point x="1447" y="40"/>
      <point x="1447" y="446" type="curve" smooth="yes"/>
      <point x="1447" y="1559" type="line"/>
      <point x="979" y="1559" type="line"/>
      <point x="979" y="315" type="line" smooth="yes"/>
      <point x="979" y="231"/>
      <point x="911" y="211"/>
      <point x="800" y="211" type="curve" smooth="yes"/>
      <point x="678" y="211"/>
      <point x="620" y="227"/>
      <point x="620" y="348" type="curve" smooth="yes"/>
      <point x="620" y="1559" type="line"/>
    </contour>
  </outline>
</glyph>
<glyph name="V" format="1">
  <advance width="1497"/>
  <unicode hex="0056"/>
  <outline>
    <contour>
      <point x="996" y="1551" type="line"/>
      <point x="752" y="349" type="line"/>
      <point x="745" y="349" type="line"/>
      <point x="492" y="1551" type="line"/>
      <point x="59" y="1551" type="line"/>
      <point x="456" y="0" type="line"/>
      <point x="1033" y="0" type="line"/>
      <point x="1432" y="1551" type="line"/>
    </contour>
  </outline>
</glyph>
<glyph name="X" format="1">
  <advance width="1477"/>
  <unicode hex="0058"/>
  <outline>
    <contour>
      <point x="1028" y="1551" type="line"/>
      <point x="673" y="931" type="line"/>
      <point x="544" y="881" type="line"/>
      <point x="23" y="0" type="line"/>
      <point x="433" y="0" type="line"/>
      <point x="815" y="640" type="line"/>
      <point x="954" y="699" type="line"/>
      <point x="1439" y="1551" type="line"/>
    </contour>
    <contour>
      <point x="76" y="1551" type="line"/>
      <point x="1025" y="0" type="line"/>
      <point x="1436" y="0" type="line"/>
      <point x="483" y="1551" type="line"/>
    </contour>
  </outline>
</glyph>
<glyph name="Y" format="1">
  <advance width="1444"/>
  <unicode hex="0059"/>
  <outline>
    <contour>
      <point x="726" y="1559" type="move" name="top"/>
    </contour>
    <contour>
      <point x="726" y="0" type="move" name="bot"/>
    </contour>
    <contour>
      <point x="971" y="1559" type="line"/>
      <point x="726" y="878" type="line"/>
      <point x="719" y="878" type="line"/>
      <point x="481" y="1559" type="line"/>
      <point x="39" y="1559" type="line"/>
      <point x="487" y="532" type="line"/>
      <point x="487" y="0" type="line"/>
      <point x="955" y="0" type="line"/>
      <point x="955" y="525" type="line"/>
      <point x="1407" y="1559" type="line"/>
    </contour>
  </outline>
</glyph>
<glyph name="asciicircum" format="1">
  <advance width="1208"/>
  <unicode hex="005E"/>
  <outline>
    <contour>
      <point x="603" y="1540" type="curve" smooth="yes"/>
      <point x="527" y="1540"/>
      <point x="448" y="1515"/>
      <point x="410" y="1434" type="curve" smooth="yes"/>
      <point x="55" y="681" type="line" smooth="yes"/>
      <point x="3" y="569"/>
      <point x="164" y="477"/>
      <point x="235" y="595" type="curve" smooth="yes"/>
      <point x="603" y="1214" type="line"/>
      <point x="971" y="595" type="line" smooth="yes"/>
      <point x="1042" y="477"/>
      <point x="1203" y="569"/>
      <point x="1151" y="681" type="curve" smooth="yes"/>
      <point x="796" y="1434" type="line" smooth="yes"/>
      <point x="758" y="1515"/>
      <point x="679" y="1540"/>
    </contour>
  </outline>
</glyph>
<glyph name="underscore" format="1">
  <advance width="879"/>
  <unicode hex="005F"/>
  <outline>
    <contour>
      <point x="6" y="-91" type="line"/>
      <point x="6" y="-295" type="line"/>
      <point x="873" y="-295" type="line"/>
      <point x="873" y="-91" type="line"/>
    </contour>
  </outline>
</glyph>
<glyph name="grave" format="1">
  <advance width="1032"/>
  <unicode hex="0060"/>
  <outline>
    <contour>
      <point x="682" y="1215" type="move" name="_top"/>
    </contour>
    <contour>
      <point x="249" y="1721" type="curve" smooth="yes"/>
      <point x="249" y="1667"/>
      <point x="279" y="1608"/>
      <point x="346" y="1572" type="curve" smooth="yes"/>
      <point x="417" y="1532"/>
      <point x="739" y="1433"/>
      <point x="858" y="1397" type="curve" smooth="yes"/>
      <point x="879" y="1389"/>
      <point x="898" y="1394"/>
      <point x="909" y="1403" type="curve" smooth="yes"/>
      <point x="926" y="1416"/>
      <point x="927" y="1442"/>
      <point x="901" y="1466" type="curve" smooth="yes"/>
      <point x="806" y="1552"/>
      <point x="576" y="1783"/>
      <point x="501" y="1830" type="curve" smooth="yes"/>
      <point x="465" y="1853"/>
      <point x="429" y="1866"/>
      <point x="394" y="1866" type="curve" smooth="yes"/>
      <point x="306" y="1866"/>
      <point x="249" y="1797"/>
    </contour>
  </outline>
</glyph>
<glyph name="a" format="1">
  <advance width="1397"/>
  <unicode hex="0061"/>
  <outline>
    <contour>
      <point x="685" y="1215" type="move" name="top"/>
    </contour>
    <contour>
      <point x="1057" y="0" type="move" name="ogonek"/>
    </contour>
    <contour>
      <point x="696" y="0" type="move" name="bot"/>
    </contour>
    <contour>
      <point x="173" y="951" type="curve" smooth="yes"/>
      <point x="173" y="945"/>
      <point x="173" y="874"/>
      <point x="174" y="868" type="curve"/>
      <point x="549" y="877" type="line"/>
      <point x="549" y="891"/>
      <point x="550" y="1013"/>
      <point x="551" y="1022" type="curve" smooth="yes"/>
      <point x="556" y="1051"/>
      <point x="612" y="1058"/>
      <point x="689" y="1058" type="curve" smooth="yes"/>
      <point x="758" y="1058"/>
      <point x="829" y="1049"/>
      <point x="829" y="1020" type="curve" smooth="yes"/>
      <point x="829" y="708" type="line"/>
      <point x="794" y="708"/>
      <point x="614" y="691"/>
      <point x="585" y="689" type="curve" smooth="yes"/>
      <point x="296" y="663"/>
      <point x="131" y="618"/>
      <point x="131" y="367" type="curve" smooth="yes"/>
      <point x="131" y="92"/>
      <point x="247" y="-21"/>
      <point x="518" y="-21" type="curve" smooth="yes"/>
      <point x="690" y="-21"/>
      <point x="793" y="26"/>
      <point x="846" y="147" type="curve"/>
      <point x="892" y="1" type="line"/>
      <point x="1242" y="1" type="line"/>
      <point x="1242" y="857" type="line" smooth="yes"/>
      <point x="1242" y="1191"/>
      <point x="1003" y="1236"/>
      <point x="694" y="1236" type="curve" smooth="yes"/>
      <point x="458" y="1236"/>
      <point x="173" y="1219"/>
    </contour>
    <contour>
      <point x="829" y="251" type="line"/>
      <point x="829" y="205"/>
      <point x="753" y="171"/>
      <point x="658" y="171" type="curve" smooth="yes"/>
      <point x="596" y="171"/>
      <point x="537" y="180"/>
      <point x="535" y="231" type="curve" smooth="yes"/>
      <point x="535" y="242"/>
      <point x="535" y="486"/>
      <point x="535" y="500" type="curve" smooth="yes"/>
      <point x="535" y="538"/>
      <point x="660" y="573"/>
      <point x="829" y="573" type="curve"/>
    </contour>
  </outline>
</glyph>
<glyph name="b" format="1">
  <advance width="1490"/>
  <unicode hex="0062"/>
  <outline>
    <contour>
      <point x="742" y="1231" type="move" name="top"/>
    </contour>
    <contour>
      <point x="170" y="1600" type="line"/>
      <point x="170" y="0" type="line"/>
      <point x="574" y="0" type="line"/>
      <point x="605" y="122" type="line"/>
      <point x="657" y="29"/>
      <point x="787" y="-21"/>
      <point x="942" y="-21" type="curve" smooth="yes"/>
      <point x="1246" y="-21"/>
      <point x="1352" y="115"/>
      <point x="1353" y="421" type="curve" smooth="yes"/>
      <point x="1354" y="828" type="line" smooth="yes"/>
      <point x="1355" y="1108"/>
      <point x="1246" y="1252"/>
      <point x="939" y="1252" type="curve" smooth="yes"/>
      <point x="782" y="1252"/>
      <point x="673" y="1216"/>
      <point x="614" y="1130" type="curve"/>
      <point x="614" y="1600" type="line"/>
    </contour>
    <contour>
      <point x="757" y="171" type="curve" smooth="yes"/>
      <point x="693" y="171"/>
      <point x="614" y="185"/>
      <point x="614" y="223" type="curve" smooth="yes"/>
      <point x="614" y="988" type="line" smooth="yes"/>
      <point x="614" y="1055"/>
      <point x="682" y="1062"/>
      <point x="757" y="1062" type="curve" smooth="yes"/>
      <point x="841" y="1062"/>
      <point x="899" y="1049"/>
      <point x="899" y="984" type="curve" smooth="yes"/>
      <point x="899" y="248" type="line" smooth="yes"/>
      <point x="899" y="177"/>
      <point x="829" y="171"/>
    </contour>
  </outline>
</glyph>
<glyph name="c" format="1">
  <advance width="1386"/>
  <unicode hex="0063"/>
  <outline>
    <contour>
      <point x="682" y="1215" type="move" name="top"/>
    </contour>
    <contour>
      <point x="689" y="0" type="move" name="bot"/>
    </contour>
    <contour>
      <point x="136" y="814" type="curve" smooth="yes"/>
      <point x="136" y="423" type="line" smooth="yes"/>
      <point x="137" y="47"/>
      <point x="354" y="-21"/>
      <point x="704" y="-21" type="curve" smooth="yes"/>
      <point x="1012" y="-21"/>
      <point x="1247" y="11"/>
      <point x="1255" y="310" type="curve" smooth="yes"/>
      <point x="1257" y="439" type="line"/>
      <point x="857" y="456" type="line"/>
      <point x="852" y="209" type="line" smooth="yes"/>
      <point x="849" y="171"/>
      <point x="786" y="165"/>
      <point x="699" y="165" type="curve" smooth="yes"/>
      <point x="597" y="165"/>
      <point x="546" y="184"/>
      <point x="546" y="299" type="curve" smooth="yes"/>
      <point x="546" y="943" type="line" smooth="yes"/>
      <point x="546" y="1029"/>
      <point x="599" y="1052"/>
      <point x="707" y="1052" type="curve" smooth="yes"/>
      <point x="797" y="1052"/>
      <point x="845" y="1037"/>
      <point x="849" y="1008" type="curve" smooth="yes"/>
      <point x="858" y="765" type="line"/>
      <point x="1257" y="782" type="line"/>
      <point x="1251" y="941" type="line" smooth="yes"/>
      <point x="1240" y="1223"/>
      <point x="981" y="1236"/>
      <point x="711" y="1236" type="curve" smooth="yes"/>
      <point x="366" y="1236"/>
      <point x="136" y="1185"/>
    </contour>
  </outline>
</glyph>
<glyph name="d" format="1">
  <advance width="1488"/>
  <unicode hex="0064"/>
  <outline>
    <contour>
      <point x="582" y="1325" type="move" name="top"/>
    </contour>
    <contour>
      <point x="1158" y="1231" type="move" name="caron.alt"/>
    </contour>
    <contour>
      <point x="1080" y="1419" type="move" name="mid"/>
    </contour>
    <contour>
      <point x="874" y="1600" type="line"/>
      <point x="874" y="1133" type="line"/>
      <point x="816" y="1217"/>
      <point x="716" y="1252"/>
      <point x="558" y="1252" type="curve" smooth="yes"/>
      <point x="245" y="1252"/>
      <point x="136" y="1119"/>
      <point x="136" y="813" type="curve" smooth="yes"/>
      <point x="136" y="420" type="line" smooth="yes"/>
      <point x="136" y="127"/>
      <point x="239" y="-21"/>
      <point x="553" y="-21" type="curve" smooth="yes"/>
      <point x="709" y="-21"/>
      <point x="828" y="30"/>
      <point x="883" y="122" type="curve"/>
      <point x="914" y="0" type="line"/>
      <point x="1318" y="0" type="line"/>
      <point x="1318" y="1600" type="line"/>
    </contour>
    <contour>
      <point x="732" y="171" type="curve" smooth="yes"/>
      <point x="647" y="171"/>
      <point x="592" y="197"/>
      <point x="591" y="266" type="curve" smooth="yes"/>
      <point x="591" y="969" type="line" smooth="yes"/>
      <point x="591" y="1046"/>
      <point x="658" y="1062"/>
      <point x="732" y="1062" type="curve" smooth="yes"/>
      <point x="799" y="1062"/>
      <point x="874" y="1050"/>
      <point x="874" y="1010" type="curve" smooth="yes"/>
      <point x="874" y="218" type="line" smooth="yes"/>
      <point x="874" y="182"/>
      <point x="794" y="171"/>
    </contour>
  </outline>
</glyph>
<glyph name="e" format="1">
  <advance width="1440"/>
  <unicode hex="0065"/>
  <outline>
    <contour>
      <point x="708" y="1231" type="move" name="top"/>
    </contour>
    <contour>
      <point x="823" y="0" type="move" name="ogonek"/>
    </contour>
    <contour>
      <point x="715" y="0" type="move" name="bot"/>
    </contour>
    <contour>
      <point x="727" y="-21" type="curve" smooth="yes"/>
      <point x="1110" y="-21"/>
      <point x="1296" y="55"/>
      <point x="1298" y="329" type="curve" smooth="yes"/>
      <point x="1298" y="350"/>
      <point x="1297" y="403"/>
      <point x="1293" y="428" type="curve"/>
      <point x="864" y="431" type="line"/>
      <point x="861" y="202" type="line" smooth="yes"/>
      <point x="859" y="182"/>
      <point x="787" y="171"/>
      <point x="729" y="171" type="curve" smooth="yes"/>
      <point x="661" y="171"/>
      <point x="585" y="178"/>
      <point x="583" y="209" type="curve" smooth="yes"/>
      <point x="581" y="244"/>
      <point x="581" y="547"/>
      <point x="580" y="586" type="curve"/>
      <point x="1302" y="586" type="line" smooth="yes"/>
      <point x="1303" y="844" type="line"/>
      <point x="1302" y="1213"/>
      <point x="1045" y="1252"/>
      <point x="723" y="1252" type="curve" smooth="yes"/>
      <point x="395" y="1252"/>
      <point x="136" y="1209"/>
      <point x="136" y="831" type="curve" smooth="yes"/>
      <point x="136" y="388" type="line" smooth="yes"/>
      <point x="136" y="16"/>
      <point x="398" y="-21"/>
    </contour>
    <contour>
      <point x="581" y="736" type="line"/>
      <point x="581" y="758"/>
      <point x="580" y="1007"/>
      <point x="586" y="1030" type="curve" smooth="yes"/>
      <point x="593" y="1056"/>
      <point x="656" y="1063"/>
      <point x="723" y="1063" type="curve" smooth="yes"/>
      <point x="781" y="1063"/>
      <point x="855" y="1056"/>
      <point x="857" y="1028" type="curve" smooth="yes"/>
      <point x="859" y="1002"/>
      <point x="860" y="759"/>
      <point x="860" y="736" type="curve"/>
    </contour>
  </outline>
</glyph>
<glyph name="i" format="1">
  <advance width="764"/>
  <unicode hex="0069"/>
  <outline>
    <contour>
      <point x="198" y="0" type="move" name="ogonek"/>
    </contour>
    <component base="dotlessi" xOffset="-23"/>
    <component base="dotaccent" xOffset="-115"/>
  </outline>
</glyph>
<glyph name="k" format="1">
  <advance width="1400"/>
  <unicode hex="006B"/>
  <outline>
    <contour>
      <point x="929" y="1415" type="move" name="top"/>
    </contour>
    <contour>
      <point x="712" y="0" type="move" name="bot"/>
    </contour>
    <contour>
      <point x="709" y="0" type="move" name="bottom"/>
    </contour>
    <contour>
      <point x="169" y="1591" type="line"/>
      <point x="169" y="0" type="line"/>
      <point x="583" y="0" type="line"/>
      <point x="583" y="474" type="line"/>
      <point x="647" y="562" type="line"/>
      <point x="940" y="0" type="line"/>
      <point x="1396" y="0" type="line"/>
      <point x="992" y="677" type="line"/>
      <point x="1366" y="1215" type="line"/>
      <point x="932" y="1215" type="line"/>
      <point x="699" y="886" type="line" smooth="yes"/>
      <point x="675" y="860"/>
      <point x="606" y="751"/>
      <point x="583" y="725" type="curve"/>
      <point x="583" y="746"/>
      <point x="583" y="875"/>
      <point x="583" y="896" type="curve" smooth="yes"/>
      <point x="583" y="1591" type="line"/>
    </contour>
  </outline>
</glyph>
<glyph name="m" format="1">
  <advance width="2147"/>
  <unicode hex="006D"/>
  <outline>
    <contour>
      <point x="1078" y="1231" type="move" name="top"/>
    </contour>
    <contour>
      <point x="1078" y="0" type="move" name="bot"/>
    </contour>
    <contour>
      <point x="1258" y="1117" type="curve"/>
      <point x="1199" y="1209"/>
      <point x="1093" y="1252"/>
      <point x="940" y="1252" type="curve" smooth="yes"/>
      <point x="792" y="1252"/>
      <point x="662" y="1213"/>
      <point x="600" y="1116" type="curve"/>
      <point x="569" y="1231" type="line"/>
      <point x="170" y="1231" type="line"/>
      <point x="170" y="0" type="line"/>
      <point x="608" y="0" type="line"/>
      <point x="609" y="1034" type="line" smooth="yes"/>
      <point x="609" y="1059"/>
      <point x="706" y="1066"/>
      <point x="736" y="1066" type="curve" smooth="yes"/>
      <point x="810" y="1066"/>
      <point x="867" y="1048"/>
      <point x="867" y="978" type="curve" smooth="yes"/>
      <point x="867" y="0" type="line"/>
      <point x="1302" y="0" type="line"/>
      <point x="1301" y="927" type="line" smooth="yes"/>
      <point x="1301" y="965"/>
      <point x="1301" y="1001"/>
      <point x="1300" y="1032" type="curve" smooth="yes"/>
      <point x="1307" y="1055"/>
      <point x="1385" y="1066"/>
      <point x="1439" y="1066" type="curve" smooth="yes"/>
      <point x="1500" y="1066"/>
      <point x="1557" y="1035"/>
      <point x="1557" y="956" type="curve" smooth="yes"/>
      <point x="1557" y="0" type="line"/>
      <point x="1996" y="0" type="line"/>
      <point x="1996" y="852" type="line" smooth="yes"/>
      <point x="1996" y="1142"/>
      <point x="1874" y="1252"/>
      <point x="1595" y="1252" type="curve" smooth="yes"/>
      <point x="1436" y="1252"/>
      <point x="1317" y="1211"/>
    </contour>
  </outline>
</glyph>
<glyph name="n" format="1">
  <advance width="1444"/>
  <unicode hex="006E"/>
  <outline>
    <contour>
      <point x="720" y="1215" type="move" name="top"/>
    </contour>
    <contour>
      <point x="720" y="0" type="move" name="bot"/>
    </contour>
    <contour>
      <point x="570" y="1098" type="curve"/>
      <point x="540" y="1215" type="line"/>
      <point x="169" y="1215" type="line"/>
      <point x="169" y="0" type="line"/>
      <point x="583" y="0" type="line"/>
      <point x="583" y="969" type="line" smooth="yes"/>
      <point x="583" y="1029"/>
      <point x="652" y="1052"/>
      <point x="751" y="1052" type="curve" smooth="yes"/>
      <point x="821" y="1052"/>
      <point x="879" y="1021"/>
      <point x="879" y="945" type="curve" smooth="yes"/>
      <point x="879" y="0" type="line"/>
      <point x="1292" y="0" type="line"/>
      <point x="1292" y="852" type="line" smooth="yes"/>
      <point x="1292" y="1100"/>
      <point x="1184" y="1235"/>
      <point x="905" y="1236" type="curve" smooth="yes"/>
      <point x="756" y="1236"/>
      <point x="619" y="1195"/>
    </contour>
  </outline>
</glyph>
<glyph name="o" format="1">
  <advance width="1450"/>
  <unicode hex="006F"/>
  <outline>
    <contour>
      <point x="723" y="1231" type="move" name="top"/>
    </contour>
    <contour>
      <point x="836" y="0" type="move" name="ogonek"/>
    </contour>
    <contour>
      <point x="723" y="0" type="move" name="bot"/>
    </contour>
    <contour>
      <point x="136" y="828" type="curve" smooth="yes"/>
      <point x="136" y="419" type="line" smooth="yes"/>
      <point x="136" y="26"/>
      <point x="369" y="-21"/>
      <point x="727" y="-21" type="curve" smooth="yes"/>
      <point x="1077" y="-21"/>
      <point x="1314" y="19"/>
      <point x="1314" y="418" type="curve" smooth="yes"/>
      <point x="1314" y="828" type="line" smooth="yes"/>
      <point x="1314" y="1207"/>
      <point x="1077" y="1252"/>
      <point x="728" y="1252" type="curve" smooth="yes"/>
      <point x="393" y="1252"/>
      <point x="136" y="1209"/>
    </contour>
    <contour>
      <point x="725" y="191" type="curve" smooth="yes"/>
      <point x="665" y="191"/>
      <point x="584" y="197"/>
      <point x="584" y="222" type="curve"/>
      <point x="583" y="1030" type="line"/>
      <point x="583" y="1062"/>
      <point x="684" y="1062"/>
      <point x="725" y="1062" type="curve" smooth="yes"/>
      <point x="765" y="1062"/>
      <point x="866" y="1062"/>
      <point x="866" y="1030" type="curve" smooth="yes"/>
      <point x="866" y="222" type="line" smooth="yes"/>
      <point x="866" y="196"/>
      <point x="785" y="191"/>
    </contour>
  </outline>
</glyph>
<glyph name="p" format="1">
  <advance width="1452"/>
  <unicode hex="0070"/>
  <outline>
    <contour>
      <point x="725" y="1215" type="move" name="top"/>
    </contour>
    <contour>
      <point x="725" y="0" type="move" name="bot"/>
    </contour>
    <contour>
      <point x="169" y="-400" type="line"/>
      <point x="583" y="-394" type="line"/>
      <point x="583" y="92" type="line"/>
      <point x="629" y="13"/>
      <point x="750" y="-21"/>
      <point x="904" y="-21" type="curve" smooth="yes"/>
      <point x="1213" y="-21"/>
      <point x="1316" y="116"/>
      <point x="1316" y="439" type="curve" smooth="yes"/>
      <point x="1316" y="786" type="line" smooth="yes"/>
      <point x="1316" y="1100"/>
      <point x="1212" y="1236"/>
      <point x="910" y="1236" type="curve" smooth="yes"/>
      <point x="748" y="1236"/>
      <point x="613" y="1193"/>
      <point x="558" y="1099" type="curve"/>
      <point x="528" y="1215" type="line"/>
      <point x="169" y="1215" type="line"/>
    </contour>
    <contour>
      <point x="739" y="165" type="curve" smooth="yes"/>
      <point x="647" y="165"/>
      <point x="581" y="189"/>
      <point x="581" y="304" type="curve" smooth="yes"/>
      <point x="581" y="932" type="line" smooth="yes"/>
      <point x="581" y="1038"/>
      <point x="632" y="1052"/>
      <point x="739" y="1052" type="curve" smooth="yes"/>
      <point x="858" y="1052"/>
      <point x="893" y="1006"/>
      <point x="893" y="948" type="curve" smooth="yes"/>
      <point x="893" y="290" type="line" smooth="yes"/>
      <point x="893" y="179"/>
      <point x="842" y="165"/>
    </contour>
  </outline>
</glyph>
<glyph name="q" format="1">
  <advance width="1487"/>
  <unicode hex="0071"/>
  <outline>
    <contour>
      <point x="136" y="812" type="curve" smooth="yes"/>
      <point x="136" y="425" type="line" smooth="yes"/>
      <point x="136" y="113"/>
      <point x="247" y="-21"/>
      <point x="560" y="-21" type="curve" smooth="yes"/>
      <point x="711" y="-21"/>
      <point x="825" y="14"/>
      <point x="873" y="92" type="curve"/>
      <point x="873" y="-397" type="line"/>
      <point x="1317" y="-402" type="line"/>
      <point x="1317" y="1231" type="line"/>
      <point x="933" y="1231" type="line"/>
      <point x="902" y="1116" type="line"/>
      <point x="844" y="1209"/>
      <point x="715" y="1252"/>
      <point x="556" y="1252" type="curve" smooth="yes"/>
      <point x="248" y="1252"/>
      <point x="136" y="1118"/>
    </contour>
    <contour>
      <point x="731" y="171" type="curve" smooth="yes"/>
      <point x="647" y="171"/>
      <point x="590" y="183"/>
      <point x="590" y="272" type="curve" smooth="yes"/>
      <point x="590" y="981" type="line" smooth="yes"/>
      <point x="590" y="1025"/>
      <point x="635" y="1062"/>
      <point x="731" y="1062" type="curve" smooth="yes"/>
      <point x="817" y="1062"/>
      <point x="875" y="1051"/>
      <point x="875" y="965" type="curve" smooth="yes"/>
      <point x="875" y="284" type="line" smooth="yes"/>
      <point x="875" y="193"/>
      <point x="805" y="171"/>
    </contour>
  </outline>
</glyph>
<glyph name="r" format="1">
  <advance width="1005"/>
  <unicode hex="0072"/>
  <outline>
    <contour>
      <point x="484" y="1215" type="move" name="top"/>
    </contour>
    <contour>
      <point x="435" y="0" type="move" name="bot"/>
    </contour>
    <contour>
      <point x="562" y="1078" type="curve"/>
      <point x="530" y="1215" type="line"/>
      <point x="173" y="1215" type="line"/>
      <point x="172" y="0" type="line"/>
      <point x="586" y="0" type="line"/>
      <point x="586" y="630" type="line" smooth="yes"/>
      <point x="586" y="659"/>
      <point x="583" y="780"/>
      <point x="583" y="814" type="curve" smooth="yes"/>
      <point x="583" y="902"/>
      <point x="794" y="946"/>
      <point x="871" y="946" type="curve"/>
      <point x="875" y="1235" type="line"/>
      <point x="730" y="1233"/>
      <point x="608" y="1187"/>
    </contour>
  </outline>
</glyph>
<glyph name="t" format="1">
  <advance width="993"/>
  <unicode hex="0074"/>
  <outline>
    <contour>
      <point x="469" y="1450" type="move" name="top"/>
    </contour>
    <contour>
      <point x="466" y="1282" type="move" name="caron.alt"/>
    </contour>
    <contour>
      <point x="531" y="0" type="move" name="bot"/>
    </contour>
    <contour>
      <point x="478" y="719" type="move" name="mid"/>
    </contour>
    <contour>
      <point x="251" y="1532" type="line"/>
      <point x="251" y="1215" type="line"/>
      <point x="101" y="1215" type="line"/>
      <point x="101" y="1052" type="line"/>
      <point x="251" y="1052" type="line"/>
      <point x="251" y="314" type="line" smooth="yes"/>
      <point x="251" y="45"/>
      <point x="383" y="-14"/>
      <point x="685" y="-15" type="curve" smooth="yes"/>
      <point x="775" y="-15"/>
      <point x="861" y="-2"/>
      <point x="893" y="1" type="curve"/>
      <point x="894" y="194" type="line"/>
      <point x="746" y="183"/>
      <point x="665" y="200"/>
      <point x="665" y="295" type="curve" smooth="yes"/>
      <point x="665" y="1052" type="line"/>
      <point x="850" y="1052" type="line"/>
      <point x="850" y="1215" type="line"/>
      <point x="665" y="1215" type="line"/>
      <point x="665" y="1532" type="line"/>
    </contour>
  </outline>
</glyph>
<glyph name="x" format="1">
  <advance width="1296"/>
  <unicode hex="0078"/>
  <outline>
    <contour>
      <point x="68" y="0" type="line"/>
      <point x="422" y="0" type="line"/>
      <point x="661" y="402" type="line"/>
      <point x="821" y="553" type="line"/>
      <point x="1219" y="1215" type="line"/>
      <point x="869" y="1215" type="line"/>
      <point x="644" y="824" type="line"/>
      <point x="474" y="681" type="line"/>
    </contour>
    <contour>
      <point x="813" y="0" type="line"/>
      <point x="1228" y="0" type="line"/>
      <point x="495" y="1215" type="line"/>
      <point x="77" y="1215" type="line"/>
    </contour>
  </outline>
</glyph>
<glyph name="z" format="1">
  <advance width="1131"/>
  <unicode hex="007A"/>
  <outline>
    <contour>
      <point x="546" y="1215" type="move" name="top"/>
    </contour>
    <contour>
      <point x="567" y="0" type="move" name="bot"/>
    </contour>
    <contour>
      <point x="173" y="1215" type="line"/>
      <point x="183" y="1013" type="line"/>
      <point x="573" y="1013" type="line"/>
      <point x="150" y="194" type="line"/>
      <point x="171" y="0" type="line"/>
      <point x="1012" y="0" type="line"/>
      <point x="1024" y="199" type="line"/>
      <point x="596" y="199" type="line"/>
      <point x="1013" y="1029" type="line"/>
      <point x="996" y="1215" type="line"/>
    </contour>
  </outline>
</glyph>
<glyph name="braceleft" format="1">
  <advance width="1107"/>
  <unicode hex="007B"/>
  <outline>
    <contour>
      <point x="1015" y="-280" type="curve"/>
      <point x="1015" y="-66" type="line"/>
      <point x="717" y="-66"/>
      <point x="703" y="-8"/>
      <point x="704" y="297" type="curve" smooth="yes"/>
      <point x="704" y="594"/>
      <point x="657" y="724"/>
      <point x="495" y="761" type="curve"/>
      <point x="657" y="799"/>
      <point x="704" y="929"/>
      <point x="704" y="1226" type="curve" smooth="yes"/>
      <point x="703" y="1531"/>
      <point x="717" y="1589"/>
      <point x="1015" y="1589" type="curve"/>
      <point x="1015" y="1803" type="line"/>
      <point x="545" y="1803"/>
      <point x="350" y="1701"/>
      <point x="348" y="1190" type="curve" smooth="yes"/>
      <point x="347" y="944"/>
      <point x="320" y="879"/>
      <point x="130" y="879" type="curve"/>
      <point x="130" y="644" type="line"/>
      <point x="320" y="644"/>
      <point x="347" y="579"/>
      <point x="348" y="332" type="curve" smooth="yes"/>
      <point x="350" y="-178"/>
      <point x="545" y="-280"/>
    </contour>
  </outline>
</glyph>
<glyph name="bar" format="1">
  <advance width="896"/>
  <unicode hex="007C"/>
  <outline>
    <contour>
      <point x="242" y="1729" type="line"/>
      <point x="242" y="-132" type="line"/>
      <point x="647" y="-132" type="line"/>
      <point x="647" y="1729" type="line"/>
    </contour>
  </outline>
</glyph>
<glyph name="braceright" format="1">
  <advance width="1107"/>
  <unicode hex="007D"/>
  <outline>
    <contour>
      <point x="130" y="-280" type="line"/>
      <point x="600" y="-280"/>
      <point x="795" y="-178"/>
      <point x="797" y="332" type="curve" smooth="yes"/>
      <point x="798" y="579"/>
      <point x="825" y="644"/>
      <point x="1015" y="644" type="curve"/>
      <point x="1015" y="879" type="line"/>
      <point x="825" y="879"/>
      <point x="798" y="944"/>
      <point x="797" y="1190" type="curve" smooth="yes"/>
      <point x="795" y="1701"/>
      <point x="600" y="1803"/>
      <point x="130" y="1803" type="curve"/>
      <point x="130" y="1589" type="line"/>
      <point x="428" y="1589"/>
      <point x="442" y="1531"/>
      <point x="441" y="1226" type="curve" smooth="yes"/>
      <point x="441" y="929"/>
      <point x="488" y="799"/>
      <point x="650" y="761" type="curve"/>
      <point x="488" y="724"/>
      <point x="441" y="594"/>
      <point x="441" y="297" type="curve" smooth="yes"/>
      <point x="442" y="-8"/>
      <point x="428" y="-66"/>
      <point x="130" y="-66" type="curve"/>
    </contour>
  </outline>
</glyph>
<glyph name="asciitilde" format="1">
  <advance width="1383"/>
  <unicode hex="007E"/>
  <outline>
    <contour>
      <point x="943" y="611" type="curve" smooth="yes"/>
      <point x="1121" y="591"/>
      <point x="1216" y="707"/>
      <point x="1245" y="955" type="curve"/>
      <point x="1119" y="998" type="line"/>
      <point x="1073" y="894"/>
      <point x="1030" y="845"/>
      <point x="921" y="868" type="curve" smooth="yes"/>
      <point x="779" y="900"/>
      <point x="641" y="1054"/>
      <point x="440" y="1026" type="curve" smooth="yes"/>
      <point x="313" y="1008"/>
      <point x="221" y="932"/>
      <point x="175" y="710" type="curve"/>
      <point x="279" y="650" type="line"/>
      <point x="315" y="761"/>
      <point x="372" y="793"/>
      <point x="455" y="785" type="curve" smooth="yes"/>
      <point x="613" y="769"/>
      <point x="762" y="631"/>
    </contour>
  </outline>
</glyph>
<glyph name="cent" format="1">
  <advance width="1559"/>
  <unicode hex="00A2"/>
  <outline>
    <contour>
      <point x="733" y="1814" type="line"/>
      <point x="733" y="1495" type="line"/>
      <point x="877" y="1495" type="line"/>
      <point x="877" y="1814" type="line"/>
    </contour>
    <contour>
      <point x="735" y="42" type="line"/>
      <point x="735" y="-264" type="line"/>
      <point x="879" y="-264" type="line"/>
      <point x="879" y="42" type="line"/>
    </contour>
    <component base="C"/>
  </outline>
</glyph>
<glyph name="sterling" format="1">
  <advance width="1622"/>
  <unicode hex="00A3"/>
  <outline>
    <contour>
      <point x="140" y="0" type="line"/>
      <point x="145" y="0"/>
      <point x="282" y="0"/>
      <point x="287" y="0" type="curve" smooth="yes"/>
      <point x="468" y="5"/>
      <point x="580" y="35"/>
      <point x="646" y="134" type="curve"/>
      <point x="691" y="45"/>
      <point x="827" y="0"/>
      <point x="1022" y="0" type="curve" smooth="yes"/>
      <point x="1325" y="0"/>
      <point x="1460" y="75"/>
      <point x="1464" y="304" type="curve" smooth="yes"/>
      <point x="1469" y="510" type="line"/>
      <point x="1065" y="517" type="line"/>
      <point x="1061" y="255" type="line" smooth="yes"/>
      <point x="1059" y="226"/>
      <point x="972" y="223"/>
      <point x="906" y="223" type="curve" smooth="yes"/>
      <point x="786" y="223"/>
      <point x="711" y="233"/>
      <point x="711" y="259" type="curve" smooth="yes"/>
      <point x="711" y="711" type="line"/>
      <point x="1167" y="711" type="line"/>
      <point x="1167" y="898" type="line"/>
      <point x="711" y="898" type="line"/>
      <point x="711" y="1306" type="line" smooth="yes"/>
      <point x="711" y="1364"/>
      <point x="750" y="1377"/>
      <point x="878" y="1377" type="curve" smooth="yes"/>
      <point x="975" y="1377"/>
      <point x="1028" y="1375"/>
      <point x="1028" y="1333" type="curve" smooth="yes"/>
      <point x="1027" y="1068" type="line"/>
      <point x="1440" y="1073" type="line"/>
      <point x="1439" y="1328" type="line" smooth="yes"/>
      <point x="1439" y="1544"/>
      <point x="1215" y="1594"/>
      <point x="900" y="1594" type="curve" smooth="yes"/>
      <point x="496" y="1594"/>
      <point x="297" y="1535"/>
      <point x="297" y="1162" type="curve" smooth="yes"/>
      <point x="297" y="899" type="line"/>
      <point x="142" y="899" type="line"/>
      <point x="142" y="712" type="line"/>
      <point x="297" y="712" type="line"/>
      <point x="297" y="340" type="line" smooth="yes"/>
      <point x="297" y="254"/>
      <point x="238" y="227"/>
      <point x="141" y="221" type="curve"/>
    </contour>
  </outline>
</glyph>
<glyph name="currency" format="1">
  <advance width="1432"/>
  <unicode hex="00A4"/>
  <outline>
    <contour>
      <point x="1162" y="198" type="line"/>
      <point x="1238" y="277" type="line"/>
      <point x="1112" y="418" type="line"/>
      <point x="1223" y="497"/>
      <point x="1272" y="616"/>
      <point x="1272" y="791" type="curve" smooth="yes"/>
      <point x="1272" y="975"/>
      <point x="1237" y="1093"/>
      <point x="1130" y="1177" type="curve"/>
      <point x="1237" y="1299" type="line"/>
      <point x="1161" y="1379" type="line"/>
      <point x="1033" y="1235" type="line"/>
      <point x="946" y="1273"/>
      <point x="843" y="1291"/>
      <point x="714" y="1291" type="curve" smooth="yes"/>
      <point x="583" y="1291"/>
      <point x="479" y="1273"/>
      <point x="392" y="1233" type="curve"/>
      <point x="263" y="1379" type="line"/>
      <point x="189" y="1300" type="line"/>
      <point x="297" y="1175" type="line"/>
      <point x="192" y="1092"/>
      <point x="157" y="967"/>
      <point x="157" y="790" type="curve" smooth="yes"/>
      <point x="157" y="613"/>
      <point x="203" y="499"/>
      <point x="313" y="420" type="curve"/>
      <point x="188" y="278" type="line"/>
      <point x="262" y="199" type="line"/>
      <point x="411" y="366" type="line"/>
      <point x="494" y="332"/>
      <point x="593" y="317"/>
      <point x="715" y="316" type="curve" smooth="yes"/>
      <point x="835" y="316"/>
      <point x="930" y="331"/>
      <point x="1015" y="363" type="curve"/>
    </contour>
    <contour>
      <point x="712" y="528" type="curve" smooth="yes"/>
      <point x="639" y="528"/>
      <point x="570" y="562"/>
      <point x="568" y="634" type="curve" smooth="yes"/>
      <point x="568" y="635"/>
      <point x="568" y="967"/>
      <point x="568" y="969" type="curve" smooth="yes"/>
      <point x="568" y="1043"/>
      <point x="641" y="1080"/>
      <point x="712" y="1080" type="curve" smooth="yes"/>
      <point x="788" y="1080"/>
      <point x="855" y="1042"/>
      <point x="855" y="969" type="curve" smooth="yes"/>
      <point x="855" y="967"/>
      <point x="855" y="635"/>
      <point x="855" y="634" type="curve" smooth="yes"/>
      <point x="854" y="563"/>
      <point x="782" y="528"/>
    </contour>
  </outline>
</glyph>
<glyph name="yen" format="1">
  <advance width="1508"/>
  <unicode hex="00A5"/>
  <outline>
    <contour>
      <point x="532" y="0" type="line"/>
      <point x="968" y="0" type="line"/>
      <point x="968" y="283" type="line"/>
      <point x="1283" y="283" type="line"/>
      <point x="1283" y="402" type="line"/>
      <point x="968" y="402" type="line"/>
      <point x="998" y="557" type="line"/>
      <point x="1303" y="557" type="line"/>
      <point x="1303" y="687" type="line"/>
      <point x="1052" y="687" type="line"/>
      <point x="1414" y="1551" type="line"/>
      <point x="1001" y="1551" type="line"/>
      <point x="760" y="778" type="line"/>
      <point x="508" y="1551" type="line"/>
      <point x="90" y="1551" type="line"/>
      <point x="450" y="687" type="line"/>
      <point x="198" y="687" type="line"/>
      <point x="198" y="557" type="line"/>
      <point x="504" y="557" type="line"/>
      <point x="532" y="402" type="line"/>
      <point x="218" y="402" type="line"/>
      <point x="218" y="283" type="line"/>
      <point x="532" y="283" type="line"/>
    </contour>
  </outline>
</glyph>
<glyph name="brokenbar" format="1">
  <advance width="901"/>
  <unicode hex="00A6"/>
  <outline>
    <contour>
      <point x="246" y="1679" type="line"/>
      <point x="246" y="809" type="line"/>
      <point x="656" y="809" type="line"/>
      <point x="656" y="1679" type="line"/>
    </contour>
    <contour>
      <point x="246" y="620" type="line"/>
      <point x="246" y="-250" type="line"/>
      <point x="656" y="-250" type="line"/>
      <point x="656" y="620" type="line"/>
    </contour>
  </outline>
</glyph>
<glyph name="section" format="1">
  <advance width="1381"/>
  <unicode hex="00A7"/>
  <outline>
    <contour>
      <point x="678" y="-201" type="curve" smooth="yes"/>
      <point x="991" y="-201"/>
      <point x="1199" y="-151"/>
      <point x="1199" y="195" type="curve" smooth="yes"/>
      <point x="1199" y="348"/>
      <point x="1119" y="436"/>
      <point x="1044" y="483" type="curve"/>
      <point x="1128" y="504"/>
      <point x="1209" y="600"/>
      <point x="1209" y="739" type="curve" smooth="yes"/>
      <point x="1209" y="987"/>
      <point x="979" y="1012"/>
      <point x="781" y="1033" type="curve" smooth="yes"/>
      <point x="620" y="1057"/>
      <point x="598" y="1056"/>
      <point x="588" y="1141" type="curve" smooth="yes"/>
      <point x="588" y="1183"/>
      <point x="594" y="1349"/>
      <point x="608" y="1360" type="curve" smooth="yes"/>
      <point x="622" y="1371"/>
      <point x="665" y="1371"/>
      <point x="699" y="1371" type="curve" smooth="yes"/>
      <point x="738" y="1371"/>
      <point x="782" y="1368"/>
      <point x="796" y="1355" type="curve" smooth="yes"/>
      <point x="809" y="1342"/>
      <point x="812" y="1208"/>
      <point x="812" y="1169" type="curve"/>
      <point x="1204" y="1169" type="line"/>
      <point x="1204" y="1217"/>
      <point x="1203" y="1259"/>
      <point x="1198" y="1297" type="curve" smooth="yes"/>
      <point x="1181" y="1555"/>
      <point x="949" y="1585"/>
      <point x="704" y="1585" type="curve" smooth="yes"/>
      <point x="389" y="1585"/>
      <point x="186" y="1532"/>
      <point x="186" y="1190" type="curve" smooth="yes"/>
      <point x="186" y="1046"/>
      <point x="243" y="956"/>
      <point x="328" y="904" type="curve"/>
      <point x="297" y="879"/>
      <point x="176" y="791"/>
      <point x="176" y="655" type="curve" smooth="yes"/>
      <point x="176" y="405"/>
      <point x="309" y="350"/>
      <point x="589" y="332" type="curve" smooth="yes"/>
      <point x="635" y="327"/>
      <point x="797" y="302"/>
      <point x="797" y="246" type="curve" smooth="yes"/>
      <point x="797" y="208"/>
      <point x="794" y="40"/>
      <point x="782" y="28" type="curve" smooth="yes"/>
      <point x="770" y="16"/>
      <point x="729" y="13"/>
      <point x="693" y="13" type="curve" smooth="yes"/>
      <point x="652" y="13"/>
      <point x="605" y="13"/>
      <point x="590" y="25" type="curve" smooth="yes"/>
      <point x="574" y="37"/>
      <point x="569" y="171"/>
      <point x="569" y="216" type="curve"/>
      <point x="177" y="216" type="line"/>
      <point x="177" y="172"/>
      <point x="178" y="134"/>
      <point x="182" y="97" type="curve" smooth="yes"/>
      <point x="197" y="-170"/>
      <point x="429" y="-201"/>
    </contour>
    <contour>
      <point x="787" y="543" type="curve"/>
      <point x="742" y="550"/>
      <point x="690" y="554"/>
      <point x="666" y="558" type="curve" smooth="yes"/>
      <point x="611" y="568"/>
      <point x="583" y="580"/>
      <point x="583" y="640" type="curve" smooth="yes"/>
      <point x="583" y="661"/>
      <point x="587" y="813"/>
      <point x="594" y="838" type="curve"/>
      <point x="607" y="834"/>
      <point x="674" y="830"/>
      <point x="742" y="809" type="curve" smooth="yes"/>
      <point x="771" y="800"/>
      <point x="800" y="786"/>
      <point x="800" y="731" type="curve" smooth="yes"/>
      <point x="800" y="700"/>
      <point x="796" y="549"/>
    </contour>
  </outline>
</glyph>
<glyph name="ordfeminine" format="1">
  <advance width="1351"/>
  <unicode hex="00AA"/>
  <outline>
    <contour>
      <point x="490" y="398" type="curve" smooth="yes"/>
      <point x="647" y="398"/>
      <point x="751" y="443"/>
      <point x="801" y="552" type="curve"/>
      <point x="844" y="419" type="line"/>
      <point x="1183" y="418" type="line"/>
      <point x="1183" y="1220" type="line" smooth="yes"/>
      <point x="1183" y="1522"/>
      <point x="1002" y="1571"/>
      <point x="674" y="1571" type="curve" smooth="yes"/>
      <point x="422" y="1571"/>
      <point x="190" y="1541"/>
      <point x="190" y="1294" type="curve" smooth="yes"/>
      <point x="190" y="1290"/>
      <point x="190" y="1223"/>
      <point x="191" y="1218" type="curve"/>
      <point x="553" y="1228" type="line"/>
      <point x="553" y="1234"/>
      <point x="553" y="1350"/>
      <point x="553" y="1355" type="curve" smooth="yes"/>
      <point x="553" y="1385"/>
      <point x="603" y="1396"/>
      <point x="671" y="1396" type="curve" smooth="yes"/>
      <point x="742" y="1396"/>
      <point x="785" y="1387"/>
      <point x="785" y="1350" type="curve" smooth="yes"/>
      <point x="785" y="1078" type="line"/>
      <point x="776" y="1078"/>
      <point x="628" y="1079"/>
      <point x="618" y="1079" type="curve" smooth="yes"/>
      <point x="322" y="1079"/>
      <point x="132" y="1007"/>
      <point x="132" y="764" type="curve" smooth="yes"/>
      <point x="132" y="509"/>
      <point x="234" y="398"/>
    </contour>
    <contour>
      <point x="587" y="576" type="curve" smooth="yes"/>
      <point x="526" y="576"/>
      <point x="526" y="850"/>
      <point x="526" y="916" type="curve" smooth="yes"/>
      <point x="526" y="949"/>
      <point x="647" y="960"/>
      <point x="785" y="961" type="curve"/>
      <point x="785" y="658" type="line" smooth="yes"/>
      <point x="783" y="611"/>
      <point x="678" y="576"/>
    </contour>
  </outline>
</glyph>
<glyph name="guillemotleft" format="1">
  <advance width="1682"/>
  <unicode hex="00AB"/>
  <outline>
    <contour>
      <point x="738" y="216" type="curve" smooth="yes"/>
      <point x="781" y="216"/>
      <point x="813" y="253"/>
      <point x="813" y="295" type="curve" smooth="yes"/>
      <point x="813" y="316"/>
      <point x="806" y="338"/>
      <point x="789" y="358" type="curve"/>
      <point x="421" y="779" type="line"/>
      <point x="789" y="1200" type="line"/>
      <point x="806" y="1223"/>
      <point x="814" y="1245"/>
      <point x="814" y="1263" type="curve" smooth="yes"/>
      <point x="814" y="1308"/>
      <point x="782" y="1343"/>
      <point x="739" y="1341" type="curve" smooth="yes"/>
      <point x="721" y="1343"/>
      <point x="702" y="1336"/>
      <point x="680" y="1320" type="curve" smooth="yes"/>
      <point x="163" y="935" type="line" smooth="yes"/>
      <point x="110" y="895"/>
      <point x="82" y="838"/>
      <point x="81" y="778" type="curve"/>
      <point x="81" y="721"/>
      <point x="108" y="663"/>
      <point x="163" y="622" type="curve" smooth="yes"/>
      <point x="680" y="238" type="line" smooth="yes"/>
      <point x="699" y="223"/>
      <point x="720" y="216"/>
    </contour>
    <contour>
      <point x="1400" y="216" type="curve" smooth="yes"/>
      <point x="1443" y="216"/>
      <point x="1474" y="253"/>
      <point x="1474" y="295" type="curve" smooth="yes"/>
      <point x="1474" y="316"/>
      <point x="1468" y="338"/>
      <point x="1451" y="358" type="curve"/>
      <point x="1083" y="779" type="line"/>
      <point x="1451" y="1200" type="line"/>
      <point x="1468" y="1223"/>
      <point x="1475" y="1245"/>
      <point x="1475" y="1263" type="curve" smooth="yes"/>
      <point x="1475" y="1308"/>
      <point x="1444" y="1343"/>
      <point x="1401" y="1341" type="curve" smooth="yes"/>
      <point x="1384" y="1343"/>
      <point x="1363" y="1336"/>
      <point x="1341" y="1320" type="curve" smooth="yes"/>
      <point x="825" y="935" type="line" smooth="yes"/>
      <point x="772" y="895"/>
      <point x="744" y="838"/>
      <point x="743" y="778" type="curve"/>
      <point x="743" y="721"/>
      <point x="770" y="663"/>
      <point x="825" y="622" type="curve" smooth="yes"/>
      <point x="1341" y="238" type="line" smooth="yes"/>
      <point x="1362" y="222"/>
      <point x="1382" y="216"/>
    </contour>
  </outline>
</glyph>
<glyph name="logicalnot" format="1">
  <advance width="1411"/>
  <unicode hex="00AC"/>
  <outline>
    <contour>
      <point x="1008" y="287" type="line"/>
      <point x="1210" y="287" type="line"/>
      <point x="1210" y="1000" type="line"/>
      <point x="173" y="1000" type="line"/>
      <point x="173" y="742" type="line"/>
      <point x="1008" y="742" type="line"/>
    </contour>
  </outline>
</glyph>
<glyph name="registered" format="1">
  <advance width="1991"/>
  <unicode hex="00AE"/>
  <outline>
    <contour>
      <point x="608" y="274" type="line"/>
      <point x="888" y="274" type="line"/>
      <point x="887" y="747" type="line"/>
      <point x="1010" y="747" type="line" smooth="yes"/>
      <point x="1075" y="747"/>
      <point x="1114" y="730"/>
      <point x="1113" y="656" type="curve" smooth="yes"/>
      <point x="1113" y="274" type="line"/>
      <point x="1387" y="274" type="line"/>
      <point x="1387" y="629" type="line" smooth="yes"/>
      <point x="1387" y="737"/>
      <point x="1340" y="802"/>
      <point x="1244" y="810" type="curve"/>
      <point x="1244" y="832" type="line"/>
      <point x="1338" y="844"/>
      <point x="1392" y="916"/>
      <point x="1392" y="1050" type="curve" smooth="yes"/>
      <point x="1392" y="1110" type="line" smooth="yes"/>
      <point x="1392" y="1350"/>
      <point x="1243" y="1373"/>
      <point x="1040" y="1373" type="curve" smooth="yes"/>
      <point x="608" y="1373" type="line"/>
    </contour>
    <contour>
      <point x="989" y="43" type="curve" smooth="yes"/>
      <point x="598" y="43"/>
      <point x="344" y="155"/>
      <point x="344" y="565" type="curve" smooth="yes"/>
      <point x="344" y="1024" type="line" smooth="yes"/>
      <point x="344" y="1445"/>
      <point x="597" y="1552"/>
      <point x="993" y="1552" type="curve" smooth="yes"/>
      <point x="1349" y="1552"/>
      <point x="1644" y="1461"/>
      <point x="1644" y="1053" type="curve" smooth="yes"/>
      <point x="1644" y="535" type="line" smooth="yes"/>
      <point x="1644" y="143"/>
      <point x="1368" y="43"/>
    </contour>
    <contour>
      <point x="998" y="-99" type="curve" smooth="yes"/>
      <point x="1439" y="-99"/>
      <point x="1836" y="34"/>
      <point x="1836" y="568" type="curve" smooth="yes"/>
      <point x="1836" y="1025" type="line" smooth="yes"/>
      <point x="1836" y="1551"/>
      <point x="1476" y="1698"/>
      <point x="994" y="1698" type="curve" smooth="yes"/>
      <point x="553" y="1698"/>
      <point x="152" y="1570"/>
      <point x="152" y="1026" type="curve" smooth="yes"/>
      <point x="152" y="568" type="line" smooth="yes"/>
      <point x="152" y="52"/>
      <point x="512" y="-99"/>
    </contour>
    <contour>
      <point x="887" y="880" type="line"/>
      <point x="887" y="1236" type="line"/>
      <point x="1009" y="1236" type="line" smooth="yes"/>
      <point x="1063" y="1236"/>
      <point x="1113" y="1233"/>
      <point x="1113" y="1166" type="curve" smooth="yes"/>
      <point x="1113" y="954" type="line" smooth="yes"/>
      <point x="1113" y="889"/>
      <point x="1074" y="880"/>
      <point x="994" y="880" type="curve" smooth="yes"/>
    </contour>
  </outline>
</glyph>
<glyph name="macron" format="1">
  <advance width="1152"/>
  <unicode hex="00AF"/>
  <outline>
    <contour>
      <point x="657" y="1231" type="move" name="_top"/>
    </contour>
    <contour>
      <point x="660" y="1542" type="move" name="_mid"/>
    </contour>
    <contour>
      <point x="284" y="1639" type="line"/>
      <point x="284" y="1444" type="line"/>
      <point x="1037" y="1444" type="line"/>
      <point x="1037" y="1639" type="line"/>
    </contour>
  </outline>
</glyph>
<glyph name="plusminus" format="1">
  <advance width="1401"/>
  <unicode hex="00B1"/>
  <outline>
    <contour>
      <point x="545" y="421" type="line"/>
      <point x="855" y="421" type="line"/>
      <point x="855" y="801" type="line"/>
      <point x="1226" y="801" type="line"/>
      <point x="1226" y="1072" type="line"/>
      <point x="855" y="1072" type="line"/>
      <point x="855" y="1456" type="line"/>
      <point x="545" y="1456" type="line"/>
      <point x="545" y="1072" type="line"/>
      <point x="172" y="1072" type="line"/>
      <point x="172" y="801" type="line"/>
      <point x="545" y="801" type="line"/>
    </contour>
    <contour>
      <point x="263" y="-1" type="line"/>
      <point x="1128" y="-1" type="line"/>
      <point x="1128" y="249" type="line"/>
      <point x="263" y="249" type="line"/>
    </contour>
  </outline>
</glyph>
<glyph name="threesuperior" format="1">
  <advance width="1253"/>
  <unicode hex="00B3"/>
  <outline>
    <contour>
      <point x="636" y="477" type="curve" smooth="yes"/>
      <point x="932" y="477"/>
      <point x="1050" y="559"/>
      <point x="1050" y="805" type="curve" smooth="yes"/>
      <point x="1050" y="913"/>
      <point x="1021" y="1004"/>
      <point x="927" y="1035" type="curve"/>
      <point x="1014" y="1067"/>
      <point x="1048" y="1139"/>
      <point x="1048" y="1247" type="curve" smooth="yes"/>
      <point x="1048" y="1494"/>
      <point x="937" y="1571"/>
      <point x="635" y="1571" type="curve" smooth="yes"/>
      <point x="329" y="1571"/>
      <point x="217" y="1488"/>
      <point x="217" y="1225" type="curve"/>
      <point x="217" y="1183" type="line"/>
      <point x="510" y="1183" type="line"/>
      <point x="510" y="1331" type="line" smooth="yes"/>
      <point x="512" y="1402"/>
      <point x="556" y="1411"/>
      <point x="634" y="1411" type="curve" smooth="yes"/>
      <point x="712" y="1411"/>
      <point x="754" y="1397"/>
      <point x="754" y="1341" type="curve"/>
      <point x="754" y="1286"/>
      <point x="759" y="1105"/>
      <point x="733" y="1105" type="curve" smooth="yes"/>
      <point x="523" y="1105" type="line"/>
      <point x="523" y="970" type="line"/>
      <point x="733" y="970" type="line" smooth="yes"/>
      <point x="756" y="970"/>
      <point x="754" y="768"/>
      <point x="754" y="723" type="curve"/>
      <point x="754" y="665"/>
      <point x="709" y="644"/>
      <point x="639" y="644" type="curve"/>
      <point x="544" y="644"/>
      <point x="508" y="665"/>
      <point x="510" y="728" type="curve" smooth="yes"/>
      <point x="510" y="889" type="line"/>
      <point x="217" y="889" type="line"/>
      <point x="217" y="837" type="line" smooth="yes"/>
      <point x="217" y="587"/>
      <point x="324" y="477"/>
    </contour>
  </outline>
</glyph>
<glyph name="acute" format="1">
  <advance width="1028"/>
  <unicode hex="00B4"/>
  <outline>
    <contour>
      <point x="447" y="1215" type="move" name="_top"/>
    </contour>
    <contour>
      <point x="313" y="1397" type="curve" smooth="yes"/>
      <point x="432" y="1433"/>
      <point x="754" y="1532"/>
      <point x="825" y="1572" type="curve" smooth="yes"/>
      <point x="892" y="1608"/>
      <point x="922" y="1667"/>
      <point x="922" y="1721" type="curve" smooth="yes"/>
      <point x="922" y="1797"/>
      <point x="865" y="1866"/>
      <point x="778" y="1866" type="curve" smooth="yes"/>
      <point x="742" y="1866"/>
      <point x="706" y="1853"/>
      <point x="670" y="1830" type="curve" smooth="yes"/>
      <point x="595" y="1783"/>
      <point x="365" y="1552"/>
      <point x="271" y="1466" type="curve" smooth="yes"/>
      <point x="249" y="1446"/>
      <point x="246" y="1425"/>
      <point x="255" y="1411" type="curve" smooth="yes"/>
      <point x="264" y="1396"/>
      <point x="288" y="1388"/>
    </contour>
  </outline>
</glyph>
<glyph name="paragraph" format="1">
  <advance width="1406"/>
  <unicode hex="00B6"/>
  <outline>
    <contour>
      <point x="670" y="1551" type="line"/>
      <point x="348" y="1551"/>
      <point x="127" y="1459"/>
      <point x="127" y="1120" type="curve" smooth="yes"/>
      <point x="127" y="838"/>
      <point x="323" y="721"/>
      <point x="648" y="721" type="curve"/>
      <point x="648" y="-96" type="line"/>
      <point x="851" y="-96" type="line"/>
      <point x="851" y="963" type="line"/>
      <point x="1002" y="963" type="line"/>
      <point x="1002" y="-96" type="line"/>
      <point x="1200" y="-96" type="line"/>
      <point x="1200" y="1551" type="line"/>
    </contour>
  </outline>
</glyph>
<glyph name="periodcentered" format="1">
  <advance width="974"/>
  <unicode hex="00B7"/>
  <outline>
    <contour>
      <point x="211" y="929" type="move" name="_mid"/>
    </contour>
    <contour>
      <point x="674" y="769" type="curve" smooth="yes"/>
      <point x="760" y="769"/>
      <point x="830" y="830"/>
      <point x="830" y="934" type="curve" smooth="yes"/>
      <point x="830" y="1037"/>
      <point x="757" y="1099"/>
      <point x="674" y="1099" type="curve" smooth="yes"/>
      <point x="588" y="1099"/>
      <point x="518" y="1038"/>
      <point x="518" y="934" type="curve" smooth="yes"/>
      <point x="518" y="831"/>
      <point x="591" y="769"/>
    </contour>
  </outline>
</glyph>
<glyph name="cedilla" format="1">
  <advance width="921"/>
  <unicode hex="00B8"/>
  <outline>
    <contour>
      <point x="517" y="0" type="move" name="_bot"/>
    </contour>
    <contour>
      <point x="467" y="16" type="line"/>
      <point x="427" y="-133" type="line" smooth="yes"/>
      <point x="403" y="-226"/>
      <point x="390" y="-276"/>
      <point x="389" y="-284" type="curve"/>
      <point x="482" y="-284"/>
      <point x="528" y="-312"/>
      <point x="528" y="-366" type="curve" smooth="yes"/>
      <point x="528" y="-402"/>
      <point x="506" y="-414"/>
      <point x="472" y="-414" type="curve" smooth="yes"/>
      <point x="411" y="-414"/>
      <point x="321" y="-368"/>
      <point x="309" y="-364" type="curve"/>
      <point x="258" y="-462" type="line"/>
      <point x="323" y="-519"/>
      <point x="416" y="-548"/>
      <point x="502" y="-548" type="curve" smooth="yes"/>
      <point x="630" y="-548"/>
      <point x="750" y="-484"/>
      <point x="750" y="-354" type="curve" smooth="yes"/>
      <point x="750" y="-201"/>
      <point x="662" y="-171"/>
      <point x="533" y="-153" type="curve"/>
      <point x="582" y="16" type="line"/>
    </contour>
  </outline>
</glyph>
<glyph name="onesuperior" format="1">
  <advance width="877"/>
  <unicode hex="00B9"/>
  <outline>
    <contour>
      <point x="316" y="485" type="line"/>
      <point x="622" y="485" type="line"/>
      <point x="622" y="1551" type="line"/>
      <point x="394" y="1551" type="line"/>
      <point x="337" y="1516"/>
      <point x="262" y="1496"/>
      <point x="172" y="1496" type="curve"/>
      <point x="172" y="1360" type="line"/>
      <point x="316" y="1360" type="line"/>
    </contour>
  </outline>
</glyph>
<glyph name="ordmasculine" format="1">
  <advance width="1277"/>
  <unicode hex="00BA"/>
  <outline>
    <contour>
      <point x="637" y="562" type="curve" smooth="yes"/>
      <point x="905" y="564"/>
      <point x="1098" y="598"/>
      <point x="1098" y="904" type="curve" smooth="yes"/>
      <point x="1098" y="1231" type="line" smooth="yes"/>
      <point x="1098" y="1541"/>
      <point x="909" y="1579"/>
      <point x="638" y="1579" type="curve" smooth="yes"/>
      <point x="376" y="1579"/>
      <point x="173" y="1544"/>
      <point x="173" y="1231" type="curve" smooth="yes"/>
      <point x="173" y="904" type="line" smooth="yes"/>
      <point x="173" y="601"/>
      <point x="364" y="562"/>
    </contour>
    <contour>
      <point x="528" y="764" type="curve" smooth="yes"/>
      <point x="528" y="1394" type="line" smooth="yes"/>
      <point x="528" y="1415"/>
      <point x="602" y="1419"/>
      <point x="636" y="1419" type="curve" smooth="yes"/>
      <point x="670" y="1419"/>
      <point x="743" y="1415"/>
      <point x="743" y="1394" type="curve" smooth="yes"/>
      <point x="743" y="764" type="line" smooth="yes"/>
      <point x="743" y="745"/>
      <point x="681" y="741"/>
      <point x="636" y="741" type="curve" smooth="yes"/>
      <point x="591" y="741"/>
      <point x="528" y="745"/>
    </contour>
  </outline>
</glyph>
<glyph name="guillemotright" format="1">
  <advance width="1687"/>
  <unicode hex="00BB"/>
  <outline>
    <contour>
      <point x="211" y="216" type="curve" smooth="yes"/>
      <point x="229" y="216"/>
      <point x="249" y="222"/>
      <point x="270" y="238" type="curve" smooth="yes"/>
      <point x="786" y="622" type="line" smooth="yes"/>
      <point x="842" y="663"/>
      <point x="868" y="721"/>
      <point x="868" y="778" type="curve"/>
      <point x="868" y="838"/>
      <point x="840" y="895"/>
      <point x="786" y="935" type="curve" smooth="yes"/>
      <point x="270" y="1320" type="line" smooth="yes"/>
      <point x="248" y="1336"/>
      <point x="227" y="1343"/>
      <point x="210" y="1341" type="curve" smooth="yes"/>
      <point x="168" y="1343"/>
      <point x="136" y="1308"/>
      <point x="136" y="1263" type="curve" smooth="yes"/>
      <point x="136" y="1245"/>
      <point x="142" y="1222"/>
      <point x="160" y="1200" type="curve" smooth="yes"/>
      <point x="528" y="779" type="line"/>
      <point x="160" y="358" type="line" smooth="yes"/>
      <point x="143" y="338"/>
      <point x="137" y="316"/>
      <point x="137" y="295" type="curve" smooth="yes"/>
      <point x="137" y="253"/>
      <point x="169" y="216"/>
    </contour>
    <contour>
      <point x="873" y="216" type="curve" smooth="yes"/>
      <point x="891" y="216"/>
      <point x="912" y="223"/>
      <point x="932" y="238" type="curve" smooth="yes"/>
      <point x="1448" y="622" type="line" smooth="yes"/>
      <point x="1504" y="663"/>
      <point x="1530" y="721"/>
      <point x="1530" y="778" type="curve"/>
      <point x="1530" y="838"/>
      <point x="1502" y="895"/>
      <point x="1448" y="935" type="curve" smooth="yes"/>
      <point x="932" y="1320" type="line" smooth="yes"/>
      <point x="909" y="1336"/>
      <point x="890" y="1343"/>
      <point x="872" y="1341" type="curve" smooth="yes"/>
      <point x="830" y="1343"/>
      <point x="798" y="1308"/>
      <point x="798" y="1263" type="curve" smooth="yes"/>
      <point x="798" y="1245"/>
      <point x="804" y="1222"/>
      <point x="823" y="1200" type="curve" smooth="yes"/>
      <point x="1190" y="779" type="line"/>
      <point x="823" y="358" type="line" smooth="yes"/>
      <point x="806" y="338"/>
      <point x="799" y="316"/>
      <point x="799" y="295" type="curve" smooth="yes"/>
      <point x="799" y="253"/>
      <point x="831" y="216"/>
    </contour>
  </outline>
</glyph>
<glyph name="onehalf" format="1">
  <advance width="2548"/>
  <unicode hex="00BD"/>
  <outline>
    <contour>
      <point x="1615" y="0" type="line"/>
      <point x="2407" y="0" type="line"/>
      <point x="2407" y="174" type="line"/>
      <point x="1900" y="174" type="line"/>
      <point x="1900" y="267"/>
      <point x="1949" y="323"/>
      <point x="2082" y="371" type="curve" smooth="yes"/>
      <point x="2250" y="437"/>
      <point x="2438" y="500"/>
      <point x="2438" y="742" type="curve" smooth="yes"/>
      <point x="2438" y="1008"/>
      <point x="2288" y="1075"/>
      <point x="2026" y="1075" type="curve" smooth="yes"/>
      <point x="1783" y="1075"/>
      <point x="1608" y="1014"/>
      <point x="1611" y="744" type="curve" smooth="yes"/>
      <point x="1612" y="702" type="line"/>
      <point x="1904" y="710" type="line"/>
      <point x="1904" y="847" type="line" smooth="yes"/>
      <point x="1904" y="880"/>
      <point x="1940" y="906"/>
      <point x="2025" y="906" type="curve" smooth="yes"/>
      <point x="2105" y="905"/>
      <point x="2145" y="888"/>
      <point x="2145" y="855" type="curve" smooth="yes"/>
      <point x="2145" y="736" type="line" smooth="yes"/>
      <point x="2145" y="665"/>
      <point x="2075" y="639"/>
      <point x="1963" y="603" type="curve" smooth="yes"/>
      <point x="1731" y="523"/>
      <point x="1615" y="420"/>
      <point x="1615" y="158" type="curve" smooth="yes"/>
    </contour>
    <contour>
      <point x="239" y="511" type="line"/>
      <point x="545" y="511" type="line"/>
      <point x="545" y="1551" type="line"/>
      <point x="317" y="1551" type="line"/>
      <point x="260" y="1516"/>
      <point x="185" y="1496"/>
      <point x="95" y="1496" type="curve"/>
      <point x="95" y="1360" type="line"/>
      <point x="239" y="1360" type="line"/>
    </contour>
    <contour>
      <point x="723" y="0" type="line"/>
      <point x="980" y="0" type="line"/>
      <point x="1526" y="1566" type="line"/>
      <point x="1175" y="1566" type="line"/>
    </contour>
  </outline>
</glyph>
<glyph name="AE" format="1">
  <advance width="1972"/>
  <unicode hex="00C6"/>
  <outline>
    <contour>
      <point x="1128" y="1551" type="move" name="top"/>
    </contour>
    <contour>
      <point x="36" y="0" type="line"/>
      <point x="497" y="0" type="line"/>
      <point x="661" y="362" type="line"/>
      <point x="1006" y="362" type="line"/>
      <point x="1006" y="0" type="line"/>
      <point x="1912" y="0" type="line"/>
      <point x="1912" y="212" type="line"/>
      <point x="1436" y="212" type="line"/>
      <point x="1436" y="705" type="line"/>
      <point x="1844" y="705" type="line"/>
      <point x="1844" y="920" type="line"/>
      <point x="1436" y="920" type="line"/>
      <point x="1436" y="1341" type="line"/>
      <point x="1904" y="1341" type="line"/>
      <point x="1904" y="1551" type="line"/>
      <point x="771" y="1551" type="line"/>
    </contour>
    <contour>
      <point x="731" y="555" type="line"/>
      <point x="1006" y="1182" type="line"/>
      <point x="1006" y="555" type="line"/>
    </contour>
  </outline>
</glyph>
<glyph name="multiply" format="1">
  <advance width="1275"/>
  <unicode hex="00D7"/>
  <outline>
    <contour>
      <point x="386" y="101" type="curve"/>
      <point x="634" y="367" type="line"/>
      <point x="881" y="101" type="line"/>
      <point x="1151" y="390" type="line"/>
      <point x="905" y="656" type="line"/>
      <point x="1151" y="923" type="line"/>
      <point x="881" y="1212" type="line"/>
      <point x="634" y="946" type="line"/>
      <point x="386" y="1212" type="line"/>
      <point x="364" y="1187"/>
      <point x="125" y="933"/>
      <point x="116" y="923" type="curve"/>
      <point x="187" y="843"/>
      <point x="360" y="659"/>
      <point x="362" y="656" type="curve"/>
      <point x="116" y="390" type="line"/>
      <point x="138" y="365"/>
      <point x="377" y="110"/>
    </contour>
  </outline>
</glyph>
<glyph name="Thorn" format="1">
  <advance width="1561"/>
  <unicode hex="00DE"/>
  <outline>
    <contour>
      <point x="184" y="0" type="line"/>
      <point x="649" y="0" type="line"/>
      <point x="649" y="295" type="line"/>
      <point x="814" y="295" type="line" smooth="yes"/>
      <point x="1121" y="295"/>
      <point x="1427" y="338"/>
      <point x="1427" y="706" type="curve" smooth="yes"/>
      <point x="1427" y="968" type="line" smooth="yes"/>
      <point x="1424" y="1313"/>
      <point x="1219" y="1369"/>
      <point x="823" y="1369" type="curve" smooth="yes"/>
      <point x="649" y="1369" type="line"/>
      <point x="649" y="1562" type="line"/>
      <point x="184" y="1562" type="line"/>
    </contour>
    <contour>
      <point x="649" y="505" type="line"/>
      <point x="649" y="1161" type="line"/>
      <point x="836" y="1161" type="line" smooth="yes"/>
      <point x="949" y="1161"/>
      <point x="963" y="924"/>
      <point x="963" y="832" type="curve" smooth="yes"/>
      <point x="963" y="763"/>
      <point x="962" y="505"/>
      <point x="867" y="505" type="curve" smooth="yes"/>
    </contour>
  </outline>
</glyph>
<glyph name="ae" format="1">
  <advance width="2018"/>
  <unicode hex="00E6"/>
  <outline>
    <contour>
      <point x="978" y="1215" type="move" name="top"/>
    </contour>
    <contour>
      <point x="529" y="-27" type="curve" smooth="yes"/>
      <point x="735" y="-27"/>
      <point x="892" y="14"/>
      <point x="994" y="113" type="curve"/>
      <point x="1068" y="30"/>
      <point x="1174" y="-27"/>
      <point x="1360" y="-27" type="curve" smooth="yes"/>
      <point x="1648" y="-27"/>
      <point x="1850" y="14"/>
      <point x="1868" y="266" type="curve" smooth="yes"/>
      <point x="1873" y="284"/>
      <point x="1875" y="391"/>
      <point x="1876" y="419" type="curve"/>
      <point x="1481" y="431" type="line"/>
      <point x="1478" y="404"/>
      <point x="1480" y="237"/>
      <point x="1472" y="222" type="curve" smooth="yes"/>
      <point x="1463" y="206"/>
      <point x="1402" y="197"/>
      <point x="1355" y="197" type="curve" smooth="yes"/>
      <point x="1300" y="197"/>
      <point x="1230" y="205"/>
      <point x="1215" y="224" type="curve" smooth="yes"/>
      <point x="1201" y="242"/>
      <point x="1200" y="477"/>
      <point x="1200" y="582" type="curve"/>
      <point x="1888" y="582" type="line"/>
      <point x="1888" y="613"/>
      <point x="1888" y="849"/>
      <point x="1886" y="872" type="curve" smooth="yes"/>
      <point x="1880" y="1198"/>
      <point x="1703" y="1254"/>
      <point x="1350" y="1254" type="curve" smooth="yes"/>
      <point x="1189" y="1254"/>
      <point x="1053" y="1206"/>
      <point x="1010" y="1133" type="curve"/>
      <point x="979" y="1220"/>
      <point x="811" y="1253"/>
      <point x="667" y="1253" type="curve" smooth="yes"/>
      <point x="393" y="1253"/>
      <point x="155" y="1217"/>
      <point x="155" y="951" type="curve" smooth="yes"/>
      <point x="155" y="922"/>
      <point x="158" y="894"/>
      <point x="163" y="867" type="curve"/>
      <point x="531" y="877" type="line"/>
      <point x="532" y="906"/>
      <point x="530" y="1004"/>
      <point x="541" y="1015" type="curve" smooth="yes"/>
      <point x="552" y="1025"/>
      <point x="611" y="1028"/>
      <point x="661" y="1028" type="curve" smooth="yes"/>
      <point x="727" y="1028"/>
      <point x="786" y="1019"/>
      <point x="786" y="990" type="curve" smooth="yes"/>
      <point x="786" y="708" type="line"/>
      <point x="434" y="708"/>
      <point x="95" y="702"/>
      <point x="95" y="374" type="curve" smooth="yes"/>
      <point x="95" y="89"/>
      <point x="240" y="-27"/>
    </contour>
    <contour>
      <point x="619" y="197" type="curve" smooth="yes"/>
      <point x="582" y="197"/>
      <point x="519" y="201"/>
      <point x="510" y="214" type="curve" smooth="yes"/>
      <point x="501" y="227"/>
      <point x="500" y="454"/>
      <point x="500" y="499" type="curve" smooth="yes"/>
      <point x="500" y="528"/>
      <point x="563" y="545"/>
      <point x="650" y="551" type="curve" smooth="yes"/>
      <point x="675" y="553"/>
      <point x="748" y="554"/>
      <point x="786" y="554" type="curve"/>
      <point x="786" y="278" type="line" smooth="yes"/>
      <point x="786" y="231"/>
      <point x="711" y="197"/>
    </contour>
    <contour>
      <point x="1200" y="740" type="line"/>
      <point x="1201" y="793"/>
      <point x="1200" y="976"/>
      <point x="1212" y="998" type="curve" smooth="yes"/>
      <point x="1224" y="1020"/>
      <point x="1292" y="1028"/>
      <point x="1349" y="1028" type="curve" smooth="yes"/>
      <point x="1408" y="1028"/>
      <point x="1467" y="1020"/>
      <point x="1469" y="985" type="curve" smooth="yes"/>
      <point x="1472" y="953"/>
      <point x="1473" y="773"/>
      <point x="1473" y="740" type="curve"/>
    </contour>
  </outline>
</glyph>
<glyph name="eth" format="1">
  <advance width="1435"/>
  <unicode hex="00F0"/>
  <outline>
    <contour>
      <point x="720" y="-32" type="curve" smooth="yes"/>
      <point x="1173" y="-32"/>
      <point x="1281" y="202"/>
      <point x="1281" y="658" type="curve" smooth="yes"/>
      <point x="1281" y="1086"/>
      <point x="1187" y="1333"/>
      <point x="1002" y="1490" type="curve"/>
      <point x="1165" y="1624" type="line"/>
      <point x="1099" y="1720" type="line"/>
      <point x="904" y="1564" type="line"/>
      <point x="791" y="1635"/>
      <point x="655" y="1685"/>
      <point x="479" y="1724" type="curve"/>
      <point x="341" y="1475" type="line"/>
      <point x="495" y="1431"/>
      <point x="581" y="1408"/>
      <point x="646" y="1372" type="curve"/>
      <point x="466" y="1229" type="line"/>
      <point x="532" y="1132" type="line"/>
      <point x="744" y="1298" type="line"/>
      <point x="804" y="1238"/>
      <point x="860" y="1141"/>
      <point x="865" y="979" type="curve"/>
      <point x="857" y="1021"/>
      <point x="725" y="1042"/>
      <point x="631" y="1042" type="curve" smooth="yes"/>
      <point x="275" y="1042"/>
      <point x="143" y="891"/>
      <point x="139" y="577" type="curve" smooth="yes"/>
      <point x="138" y="570"/>
      <point x="138" y="472"/>
      <point x="138" y="465" type="curve" smooth="yes"/>
      <point x="138" y="94"/>
      <point x="308" y="-32"/>
    </contour>
    <contour>
      <point x="715" y="182" type="curve" smooth="yes"/>
      <point x="601" y="182"/>
      <point x="548" y="184"/>
      <point x="548" y="228" type="curve" smooth="yes"/>
      <point x="549" y="780" type="line" smooth="yes"/>
      <point x="549" y="826"/>
      <point x="595" y="832"/>
      <point x="716" y="832" type="curve" smooth="yes"/>
      <point x="823" y="832"/>
      <point x="864" y="806"/>
      <point x="864" y="754" type="curve" smooth="yes"/>
      <point x="864" y="224" type="line" smooth="yes"/>
      <point x="864" y="188"/>
      <point x="827" y="182"/>
    </contour>
  </outline>
</glyph>
<glyph name="divide" format="1">
  <advance width="1040"/>
  <unicode hex="00F7"/>
  <outline>
    <contour>
      <point x="520" y="134" type="curve" smooth="yes"/>
      <point x="606" y="134"/>
      <point x="660" y="203"/>
      <point x="660" y="288" type="curve" smooth="yes"/>
      <point x="660" y="366"/>
      <point x="604" y="442"/>
      <point x="534" y="442" type="curve" smooth="yes"/>
      <point x="433" y="442"/>
      <point x="380" y="383"/>
      <point x="380" y="288" type="curve" smooth="yes"/>
      <point x="380" y="193"/>
      <point x="439" y="134"/>
    </contour>
    <contour>
      <point x="176" y="614" type="line"/>
      <point x="863" y="614" type="line"/>
      <point x="863" y="753" type="line"/>
      <point x="176" y="753" type="line"/>
    </contour>
    <contour>
      <point x="520" y="925" type="curve" smooth="yes"/>
      <point x="608" y="925"/>
      <point x="660" y="991"/>
      <point x="660" y="1079" type="curve" smooth="yes"/>
      <point x="660" y="1157"/>
      <point x="604" y="1233"/>
      <point x="534" y="1233" type="curve" smooth="yes"/>
      <point x="433" y="1233"/>
      <point x="380" y="1175"/>
      <point x="380" y="1079" type="curve" smooth="yes"/>
      <point x="380" y="984"/>
      <point x="438" y="925"/>
    </contour>
  </outline>
</glyph>
<glyph name="kgreenlandic" format="1">
  <advance width="1457"/>
  <unicode hex="0138"/>
  <outline>
    <contour>
      <point x="148" y="0" type="line"/>
      <point x="570" y="0" type="line"/>
      <point x="570" y="369" type="line"/>
      <point x="674" y="492" type="line"/>
      <point x="944" y="0" type="line"/>
      <point x="1369" y="0" type="line"/>
      <point x="972" y="722" type="line"/>
      <point x="1340" y="1215" type="line"/>
      <point x="906" y="1215" type="line"/>
      <point x="694" y="914" type="line" smooth="yes"/>
      <point x="672" y="887"/>
      <point x="593" y="773"/>
      <point x="569" y="748" type="curve"/>
      <point x="569" y="768"/>
      <point x="570" y="891"/>
      <point x="570" y="912" type="curve" smooth="yes"/>
      <point x="570" y="1215" type="line"/>
      <point x="148" y="1208" type="line"/>
    </contour>
  </outline>
</glyph>
<glyph name="eng" format="1">
  <advance width="1481"/>
  <unicode hex="014B"/>
  <outline>
    <contour>
      <point x="619" y="-489" type="line"/>
      <point x="1118" y="-489"/>
      <point x="1320" y="-357"/>
      <point x="1321" y="48" type="curve" smooth="yes"/>
      <point x="1321" y="830" type="line" smooth="yes"/>
      <point x="1321" y="1120"/>
      <point x="1212" y="1259"/>
      <point x="927" y="1259" type="curve" smooth="yes"/>
      <point x="778" y="1259"/>
      <point x="642" y="1210"/>
      <point x="591" y="1115" type="curve"/>
      <point x="560" y="1231" type="line"/>
      <point x="162" y="1231" type="line"/>
      <point x="162" y="0" type="line"/>
      <point x="606" y="0" type="line"/>
      <point x="606" y="995" type="line" smooth="yes"/>
      <point x="606" y="1043"/>
      <point x="674" y="1066"/>
      <point x="762" y="1066" type="curve" smooth="yes"/>
      <point x="818" y="1066"/>
      <point x="877" y="1059"/>
      <point x="877" y="955" type="curve" smooth="yes"/>
      <point x="877" y="-153" type="line" smooth="yes"/>
      <point x="847" y="-205"/>
      <point x="783" y="-233"/>
      <point x="608" y="-233" type="curve"/>
    </contour>
  </outline>
</glyph>
<glyph name="oe" format="1">
  <advance width="2168"/>
  <unicode hex="0153"/>
  <outline>
    <contour>
      <point x="1456" y="-21" type="curve" smooth="yes"/>
      <point x="1839" y="-21"/>
      <point x="2025" y="55"/>
      <point x="2027" y="329" type="curve" smooth="yes"/>
      <point x="2027" y="350"/>
      <point x="2025" y="403"/>
      <point x="2022" y="428" type="curve"/>
      <point x="1593" y="431" type="line"/>
      <point x="1590" y="202" type="line" smooth="yes"/>
      <point x="1588" y="182"/>
      <point x="1515" y="171"/>
      <point x="1457" y="171" type="curve" smooth="yes"/>
      <point x="1389" y="171"/>
      <point x="1313" y="178"/>
      <point x="1312" y="209" type="curve" smooth="yes"/>
      <point x="1310" y="244"/>
      <point x="1309" y="547"/>
      <point x="1309" y="586" type="curve"/>
      <point x="2030" y="586" type="line"/>
      <point x="2032" y="844" type="line"/>
      <point x="2030" y="1213"/>
      <point x="1774" y="1252"/>
      <point x="1452" y="1252" type="curve" smooth="yes"/>
      <point x="1312" y="1252"/>
      <point x="1167" y="1221"/>
      <point x="1089" y="1153" type="curve"/>
      <point x="1021" y="1221"/>
      <point x="870" y="1252"/>
      <point x="723" y="1252" type="curve" smooth="yes"/>
      <point x="389" y="1252"/>
      <point x="135" y="1209"/>
      <point x="135" y="828" type="curve" smooth="yes"/>
      <point x="135" y="419" type="line" smooth="yes"/>
      <point x="135" y="26"/>
      <point x="365" y="-21"/>
      <point x="722" y="-21" type="curve" smooth="yes"/>
      <point x="869" y="-21"/>
      <point x="1025" y="9"/>
      <point x="1095" y="78" type="curve"/>
      <point x="1171" y="10"/>
      <point x="1315" y="-21"/>
    </contour>
    <contour>
      <point x="724" y="191" type="curve" smooth="yes"/>
      <point x="664" y="191"/>
      <point x="582" y="197"/>
      <point x="582" y="222" type="curve"/>
      <point x="582" y="1030" type="line"/>
      <point x="582" y="1062"/>
      <point x="683" y="1062"/>
      <point x="723" y="1062" type="curve" smooth="yes"/>
      <point x="764" y="1062"/>
      <point x="865" y="1062"/>
      <point x="865" y="1030" type="curve" smooth="yes"/>
      <point x="865" y="222" type="line" smooth="yes"/>
      <point x="865" y="196"/>
      <point x="784" y="191"/>
    </contour>
    <contour>
      <point x="1309" y="736" type="line"/>
      <point x="1310" y="758"/>
      <point x="1309" y="1007"/>
      <point x="1315" y="1030" type="curve" smooth="yes"/>
      <point x="1322" y="1056"/>
      <point x="1385" y="1063"/>
      <point x="1452" y="1063" type="curve" smooth="yes"/>
      <point x="1510" y="1063"/>
      <point x="1583" y="1056"/>
      <point x="1585" y="1028" type="curve" smooth="yes"/>
      <point x="1588" y="1002"/>
      <point x="1589" y="759"/>
      <point x="1589" y="736" type="curve"/>
    </contour>
  </outline>
</glyph>
<glyph name="dotlessj" format="1">
  <advance width="951"/>
  <unicode hex="0237"/>
  <outline>
    <contour>
      <point x="512" y="1215" type="move" name="top"/>
    </contour>
    <contour>
      <point x="307" y="1215" type="line"/>
      <point x="307" y="-65" type="line" smooth="yes"/>
      <point x="307" y="-117"/>
      <point x="161" y="-109"/>
      <point x="127" y="-111" type="curve"/>
      <point x="146" y="-300" type="line"/>
      <point x="209" y="-312"/>
      <point x="271" y="-316"/>
      <point x="347" y="-316" type="curve" smooth="yes"/>
      <point x="603" y="-316"/>
      <point x="722" y="-199"/>
      <point x="722" y="80" type="curve" smooth="yes"/>
      <point x="722" y="1215" type="line"/>
    </contour>
  </outline>
</glyph>
<glyph name="apostrophemod" format="1">
  <advance width="839"/>
  <unicode hex="02BC"/>
  <outline>
    <contour>
      <point x="275" y="1457" type="curve" smooth="yes"/>
      <point x="488" y="1457"/>
      <point x="584" y="1665"/>
      <point x="584" y="1843" type="curve" smooth="yes"/>
      <point x="584" y="1957"/>
      <point x="523" y="2057"/>
      <point x="403" y="2057" type="curve" smooth="yes"/>
      <point x="305" y="2057"/>
      <point x="223" y="1989"/>
      <point x="223" y="1876" type="curve" smooth="yes"/>
      <point x="223" y="1766"/>
      <point x="298" y="1696"/>
      <point x="387" y="1690" type="curve"/>
      <point x="384" y="1608"/>
      <point x="308" y="1553"/>
      <point x="224" y="1553" type="curve"/>
      <point x="224" y="1461" type="line"/>
      <point x="238" y="1458"/>
      <point x="255" y="1457"/>
    </contour>
  </outline>
</glyph>
<glyph name="circumflex" format="1">
  <advance width="1101"/>
  <unicode hex="02C6"/>
  <outline>
    <contour>
      <point x="625" y="1215" type="move" name="_top"/>
    </contour>
    <contour>
      <point x="980" y="1375" type="curve" smooth="yes"/>
      <point x="999" y="1392"/>
      <point x="1002" y="1423"/>
      <point x="982" y="1454" type="curve" smooth="yes"/>
      <point x="749" y="1821" type="line" smooth="yes"/>
      <point x="719" y="1866"/>
      <point x="674" y="1884"/>
      <point x="628" y="1884" type="curve" smooth="yes"/>
      <point x="581" y="1884"/>
      <point x="534" y="1865"/>
      <point x="506" y="1821" type="curve" smooth="yes"/>
      <point x="272" y="1454" type="line" smooth="yes"/>
      <point x="253" y="1422"/>
      <point x="256" y="1392"/>
      <point x="276" y="1375" type="curve" smooth="yes"/>
      <point x="295" y="1358"/>
      <point x="329" y="1355"/>
      <point x="355" y="1376" type="curve" smooth="yes"/>
      <point x="627" y="1612" type="line"/>
      <point x="900" y="1376" type="line" smooth="yes"/>
      <point x="927" y="1354"/>
      <point x="960" y="1356"/>
    </contour>
  </outline>
</glyph>
<glyph name="caron" format="1">
  <advance width="1101"/>
  <unicode hex="02C7"/>
  <outline>
    <contour>
      <point x="625" y="1215" type="move" name="_top"/>
    </contour>
    <contour>
      <point x="628" y="1354" type="curve" smooth="yes"/>
      <point x="674" y="1354"/>
      <point x="719" y="1372"/>
      <point x="749" y="1417" type="curve" smooth="yes"/>
      <point x="982" y="1784" type="line" smooth="yes"/>
      <point x="1002" y="1815"/>
      <point x="999" y="1846"/>
      <point x="980" y="1863" type="curve" smooth="yes"/>
      <point x="961" y="1882"/>
      <point x="926" y="1884"/>
      <point x="900" y="1862" type="curve" smooth="yes"/>
      <point x="627" y="1626" type="line"/>
      <point x="355" y="1862" type="line" smooth="yes"/>
      <point x="329" y="1884"/>
      <point x="295" y="1880"/>
      <point x="276" y="1863" type="curve" smooth="yes"/>
      <point x="257" y="1846"/>
      <point x="253" y="1816"/>
      <point x="272" y="1784" type="curve" smooth="yes"/>
      <point x="506" y="1417" type="line" smooth="yes"/>
      <point x="534" y="1373"/>
      <point x="581" y="1354"/>
    </contour>
  </outline>
</glyph>
<glyph name="breve" format="1">
  <advance width="1107"/>
  <unicode hex="02D8"/>
  <outline>
    <contour>
      <point x="632" y="1215" type="move" name="_top"/>
    </contour>
    <contour>
      <point x="790" y="1753" type="line"/>
      <point x="790" y="1632"/>
      <point x="741" y="1576"/>
      <point x="634" y="1576" type="curve" smooth="yes"/>
      <point x="527" y="1576"/>
      <point x="477" y="1632"/>
      <point x="477" y="1753" type="curve"/>
      <point x="246" y="1753" type="line"/>
      <point x="246" y="1491"/>
      <point x="367" y="1371"/>
      <point x="634" y="1371" type="curve" smooth="yes"/>
      <point x="900" y="1371"/>
      <point x="1022" y="1491"/>
      <point x="1022" y="1753" type="curve"/>
    </contour>
  </outline>
</glyph>
<glyph name="dotaccent" format="1">
  <advance width="841"/>
  <unicode hex="02D9"/>
  <outline>
    <contour>
      <point x="467" y="1215" type="move" name="_top"/>
    </contour>
    <contour>
      <point x="467" y="1428" type="curve" smooth="yes"/>
      <point x="598" y="1428"/>
      <point x="682" y="1478"/>
      <point x="682" y="1601" type="curve" smooth="yes"/>
      <point x="682" y="1723"/>
      <point x="598" y="1774"/>
      <point x="467" y="1774" type="curve" smooth="yes"/>
      <point x="336" y="1774"/>
      <point x="253" y="1724"/>
      <point x="253" y="1601" type="curve" smooth="yes"/>
      <point x="253" y="1479"/>
      <point x="336" y="1428"/>
    </contour>
  </outline>
</glyph>
<glyph name="ring" format="1">
  <advance width="1002"/>
  <unicode hex="02DA"/>
  <outline>
    <contour>
      <point x="560" y="1215" type="move" name="_top"/>
    </contour>
    <contour>
      <point x="260" y="1640" type="curve" smooth="yes"/>
      <point x="260" y="1461"/>
      <point x="375" y="1350"/>
      <point x="560" y="1350" type="curve" smooth="yes"/>
      <point x="745" y="1350"/>
      <point x="862" y="1461"/>
      <point x="862" y="1640" type="curve" smooth="yes"/>
      <point x="862" y="1821"/>
      <point x="745" y="1935"/>
      <point x="560" y="1935" type="curve" smooth="yes"/>
      <point x="376" y="1935"/>
      <point x="260" y="1821"/>
    </contour>
    <contour>
      <point x="693" y="1640" type="curve" smooth="yes"/>
      <point x="693" y="1549"/>
      <point x="644" y="1499"/>
      <point x="560" y="1499" type="curve" smooth="yes"/>
      <point x="474" y="1499"/>
      <point x="426" y="1551"/>
      <point x="426" y="1640" type="curve" smooth="yes"/>
      <point x="426" y="1733"/>
      <point x="472" y="1785"/>
      <point x="560" y="1785" type="curve" smooth="yes"/>
      <point x="645" y="1785"/>
      <point x="693" y="1734"/>
    </contour>
  </outline>
</glyph>
<glyph name="tilde" format="1">
  <advance width="1275"/>
  <unicode hex="02DC"/>
  <outline>
    <contour>
      <point x="651" y="1215" type="move" name="_top"/>
    </contour>
    <contour>
      <point x="845" y="1358" type="curve" smooth="yes"/>
      <point x="985" y="1358"/>
      <point x="1089" y="1501"/>
      <point x="1117" y="1628" type="curve"/>
      <point x="1032" y="1719" type="line"/>
      <point x="971" y="1648"/>
      <point x="934" y="1615"/>
      <point x="862" y="1615" type="curve" smooth="yes"/>
      <point x="769" y="1615"/>
      <point x="663" y="1725"/>
      <point x="504" y="1725" type="curve" smooth="yes"/>
      <point x="336" y="1725"/>
      <point x="238" y="1636"/>
      <point x="189" y="1479" type="curve"/>
      <point x="260" y="1390" type="line"/>
      <point x="310" y="1451"/>
      <point x="366" y="1485"/>
      <point x="444" y="1485" type="curve" smooth="yes"/>
      <point x="589" y="1485"/>
      <point x="696" y="1358"/>
    </contour>
  </outline>
</glyph>
<glyph name="hungarumlaut" format="1">
  <advance width="1504"/>
  <unicode hex="02DD"/>
  <outline>
    <contour>
      <point x="672" y="1215" type="move" name="_top"/>
    </contour>
    <contour>
      <point x="316" y="1355" type="curve"/>
      <point x="435" y="1391"/>
      <point x="756" y="1491"/>
      <point x="827" y="1531" type="curve" smooth="yes"/>
      <point x="895" y="1567"/>
      <point x="924" y="1626"/>
      <point x="924" y="1680" type="curve" smooth="yes"/>
      <point x="924" y="1756"/>
      <point x="868" y="1825"/>
      <point x="780" y="1825" type="curve" smooth="yes"/>
      <point x="745" y="1825"/>
      <point x="709" y="1812"/>
      <point x="672" y="1789" type="curve" smooth="yes"/>
      <point x="598" y="1742"/>
      <point x="368" y="1511"/>
      <point x="273" y="1425" type="curve"/>
      <point x="251" y="1405"/>
      <point x="250" y="1377"/>
      <point x="261" y="1366" type="curve"/>
      <point x="270" y="1355"/>
      <point x="296" y="1348"/>
    </contour>
    <contour>
      <point x="901" y="1355" type="curve"/>
      <point x="1021" y="1391"/>
      <point x="1342" y="1491"/>
      <point x="1413" y="1531" type="curve" smooth="yes"/>
      <point x="1480" y="1567"/>
      <point x="1510" y="1626"/>
      <point x="1510" y="1680" type="curve" smooth="yes"/>
      <point x="1510" y="1756"/>
      <point x="1453" y="1825"/>
      <point x="1366" y="1825" type="curve" smooth="yes"/>
      <point x="1330" y="1825"/>
      <point x="1294" y="1812"/>
      <point x="1258" y="1789" type="curve" smooth="yes"/>
      <point x="1183" y="1742"/>
      <point x="953" y="1511"/>
      <point x="859" y="1425" type="curve"/>
      <point x="836" y="1404"/>
      <point x="835" y="1376"/>
      <point x="847" y="1365" type="curve"/>
      <point x="857" y="1355"/>
      <point x="882" y="1348"/>
    </contour>
  </outline>
</glyph>
<glyph name="uni0307" format="1">
  <advance width="780"/>
  <unicode hex="0307"/>
  <outline>
    <contour>
      <point x="385" y="1231" type="move" name="_top"/>
    </contour>
    <contour>
      <point x="389" y="1267" type="curve" smooth="yes"/>
      <point x="487" y="1267"/>
      <point x="572" y="1336"/>
      <point x="572" y="1458" type="curve" smooth="yes"/>
      <point x="572" y="1580"/>
      <point x="485" y="1649"/>
      <point x="389" y="1649" type="curve" smooth="yes"/>
      <point x="292" y="1649"/>
      <point x="207" y="1581"/>
      <point x="207" y="1458" type="curve" smooth="yes"/>
      <point x="207" y="1336"/>
      <point x="295" y="1267"/>
    </contour>
  </outline>
</glyph>
<glyph name="dblgravecmb" format="1">
  <advance width="1504"/>
  <unicode hex="030F"/>
  <outline>
    <contour>
      <point x="1077" y="1215" type="move" name="_top"/>
    </contour>
    <contour>
      <point x="858" y="1355" type="curve" smooth="yes"/>
      <point x="877" y="1348"/>
      <point x="902" y="1355"/>
      <point x="912" y="1365" type="curve"/>
      <point x="924" y="1376"/>
      <point x="924" y="1404"/>
      <point x="901" y="1425" type="curve"/>
      <point x="806" y="1511"/>
      <point x="576" y="1742"/>
      <point x="501" y="1789" type="curve" smooth="yes"/>
      <point x="465" y="1812"/>
      <point x="429" y="1825"/>
      <point x="394" y="1825" type="curve" smooth="yes"/>
      <point x="306" y="1825"/>
      <point x="249" y="1756"/>
      <point x="249" y="1680" type="curve" smooth="yes"/>
      <point x="249" y="1626"/>
      <point x="279" y="1567"/>
      <point x="346" y="1531" type="curve" smooth="yes"/>
      <point x="417" y="1491"/>
      <point x="739" y="1391"/>
    </contour>
    <contour>
      <point x="1444" y="1355" type="curve" smooth="yes"/>
      <point x="1464" y="1348"/>
      <point x="1489" y="1355"/>
      <point x="1499" y="1366" type="curve"/>
      <point x="1510" y="1377"/>
      <point x="1509" y="1405"/>
      <point x="1486" y="1425" type="curve"/>
      <point x="1392" y="1511"/>
      <point x="1161" y="1742"/>
      <point x="1087" y="1789" type="curve" smooth="yes"/>
      <point x="1051" y="1812"/>
      <point x="1015" y="1825"/>
      <point x="979" y="1825" type="curve" smooth="yes"/>
      <point x="892" y="1825"/>
      <point x="835" y="1756"/>
      <point x="835" y="1680" type="curve" smooth="yes"/>
      <point x="835" y="1626"/>
      <point x="864" y="1567"/>
      <point x="932" y="1531" type="curve" smooth="yes"/>
      <point x="1003" y="1491"/>
      <point x="1324" y="1391"/>
    </contour>
  </outline>
</glyph>
<glyph name="Sigma" format="1">
  <advance width="1343"/>
  <unicode hex="03A3"/>
  <outline>
    <contour>
      <point x="160" y="0" type="line"/>
      <point x="1252" y="0" type="line"/>
      <point x="1252" y="267" type="line"/>
      <point x="632" y="267" type="line"/>
      <point x="1039" y="733" type="line"/>
      <point x="1039" y="827" type="line"/>
      <point x="625" y="1302" type="line"/>
      <point x="1204" y="1302" type="line"/>
      <point x="1204" y="1559" type="line"/>
      <point x="160" y="1559" type="line"/>
      <point x="160" y="1303" type="line"/>
      <point x="588" y="815" type="line"/>
      <point x="160" y="286" type="line"/>
    </contour>
  </outline>
</glyph>
<glyph name="Omega" format="1">
  <advance width="1861"/>
  <unicode hex="03A9"/>
  <outline>
    <contour>
      <point x="105" y="0" type="line"/>
      <point x="841" y="0" type="line"/>
      <point x="848" y="216" type="line"/>
      <point x="584" y="372"/>
      <point x="468" y="553"/>
      <point x="468" y="830" type="curve" smooth="yes"/>
      <point x="468" y="1154"/>
      <point x="663" y="1304"/>
      <point x="930" y="1304" type="curve" smooth="yes"/>
      <point x="1199" y="1304"/>
      <point x="1393" y="1154"/>
      <point x="1393" y="830" type="curve" smooth="yes"/>
      <point x="1393" y="553"/>
      <point x="1285" y="372"/>
      <point x="1014" y="216" type="curve"/>
      <point x="1020" y="0" type="line"/>
      <point x="1756" y="0" type="line"/>
      <point x="1756" y="225" type="line"/>
      <point x="1318" y="225" type="line"/>
      <point x="1583" y="348"/>
      <point x="1729" y="546"/>
      <point x="1729" y="837" type="curve" smooth="yes"/>
      <point x="1729" y="1339"/>
      <point x="1364" y="1572"/>
      <point x="930" y="1572" type="curve" smooth="yes"/>
      <point x="497" y="1572"/>
      <point x="132" y="1339"/>
      <point x="132" y="837" type="curve" smooth="yes"/>
      <point x="132" y="546"/>
      <point x="278" y="348"/>
      <point x="543" y="225" type="curve"/>
      <point x="105" y="225" type="line"/>
    </contour>
  </outline>
</glyph>
<glyph name="mu" format="1">
  <advance width="1449"/>
  <unicode hex="03BC"/>
  <outline>
    <contour>
      <point x="869" y="1215" type="line"/>
      <point x="869" y="296" type="line"/>
      <point x="869" y="234"/>
      <point x="833" y="186"/>
      <point x="718" y="186" type="curve" smooth="yes"/>
      <point x="637" y="186"/>
      <point x="576" y="199"/>
      <point x="573" y="256" type="curve"/>
      <point x="573" y="1215" type="line"/>
      <point x="159" y="1215" type="line"/>
      <point x="159" y="-288" type="line"/>
      <point x="573" y="-288" type="line"/>
      <point x="573" y="-5" type="line"/>
      <point x="675" y="-7"/>
      <point x="835" y="20"/>
      <point x="879" y="124" type="curve"/>
      <point x="908" y="0" type="line"/>
      <point x="1284" y="0" type="line"/>
      <point x="1284" y="1215" type="line"/>
    </contour>
  </outline>
</glyph>
<glyph name="pi" format="1">
  <advance width="1636"/>
  <unicode hex="03C0"/>
  <outline>
    <contour>
      <point x="1293" y="-30" type="curve" smooth="yes"/>
      <point x="1369" y="-30"/>
      <point x="1460" y="-6"/>
      <point x="1543" y="53" type="curve"/>
      <point x="1543" y="197" type="line"/>
      <point x="1494" y="182"/>
      <point x="1438" y="174"/>
      <point x="1397" y="176" type="curve" smooth="yes"/>
      <point x="1302" y="180"/>
      <point x="1231" y="244"/>
      <point x="1225" y="415" type="curve" smooth="yes"/>
      <point x="1220" y="563"/>
      <point x="1246" y="726"/>
      <point x="1308" y="964" type="curve"/>
      <point x="1529" y="964" type="line"/>
      <point x="1538" y="1215" type="line"/>
      <point x="509" y="1215" type="line" smooth="yes"/>
      <point x="232" y="1215"/>
      <point x="109" y="1063"/>
      <point x="109" y="811" type="curve"/>
      <point x="252" y="811" type="line"/>
      <point x="265" y="899"/>
      <point x="311" y="964"/>
      <point x="403" y="964" type="curve" smooth="yes"/>
      <point x="507" y="964" type="line"/>
      <point x="408" y="431" type="line" smooth="yes"/>
      <point x="367" y="211"/>
      <point x="264" y="187"/>
      <point x="163" y="187" type="curve"/>
      <point x="163" y="0" type="line"/>
      <point x="564" y="0"/>
      <point x="672" y="102"/>
      <point x="695" y="357" type="curve" smooth="yes"/>
      <point x="751" y="964" type="line"/>
      <point x="1097" y="964" type="line"/>
      <point x="1024" y="771"/>
      <point x="932" y="552"/>
      <point x="936" y="328" type="curve" smooth="yes"/>
      <point x="940" y="85"/>
      <point x="1115" y="-30"/>
    </contour>
  </outline>
</glyph>
<glyph name="endash" format="1">
  <advance width="1212"/>
  <unicode hex="2013"/>
  <outline>
    <contour>
      <point x="191" y="511" type="line"/>
      <point x="1015" y="511" type="line"/>
      <point x="1015" y="843" type="line"/>
      <point x="191" y="843" type="line"/>
    </contour>
  </outline>
</glyph>
<glyph name="quoteleft" format="1">
  <advance width="817"/>
  <unicode hex="2018"/>
  <outline>
    <contour>
      <point x="416" y="992" type="curve" smooth="yes"/>
      <point x="509" y="992"/>
      <point x="587" y="1065"/>
      <point x="587" y="1165" type="curve" smooth="yes"/>
      <point x="587" y="1282"/>
      <point x="519" y="1344"/>
      <point x="428" y="1349" type="curve"/>
      <point x="432" y="1437"/>
      <point x="494" y="1503"/>
      <point x="576" y="1504" type="curve"/>
      <point x="576" y="1596" type="line"/>
      <point x="350" y="1596"/>
      <point x="224" y="1419"/>
      <point x="224" y="1217" type="curve" smooth="yes"/>
      <point x="224" y="1085"/>
      <point x="286" y="992"/>
    </contour>
  </outline>
</glyph>
<glyph name="quoteright" format="1">
  <advance width="799"/>
  <unicode hex="2019"/>
  <outline>
    <contour>
      <point x="233" y="994" type="line"/>
      <point x="445" y="994"/>
      <point x="585" y="1174"/>
      <point x="585" y="1373" type="curve" smooth="yes"/>
      <point x="585" y="1497"/>
      <point x="526" y="1597"/>
      <point x="407" y="1597" type="curve" smooth="yes"/>
      <point x="301" y="1597"/>
      <point x="222" y="1526"/>
      <point x="222" y="1425" type="curve" smooth="yes"/>
      <point x="222" y="1308"/>
      <point x="290" y="1246"/>
      <point x="381" y="1240" type="curve"/>
      <point x="377" y="1152"/>
      <point x="315" y="1087"/>
      <point x="233" y="1086" type="curve"/>
    </contour>
  </outline>
</glyph>
<glyph name="quotedblleft" format="1">
  <advance width="1242"/>
  <unicode hex="201C"/>
  <outline>
    <contour>
      <point x="376" y="991" type="curve" smooth="yes"/>
      <point x="473" y="991"/>
      <point x="559" y="1062"/>
      <point x="559" y="1169" type="curve" smooth="yes"/>
      <point x="559" y="1288"/>
      <point x="487" y="1352"/>
      <point x="395" y="1358" type="curve"/>
      <point x="399" y="1444"/>
      <point x="463" y="1506"/>
      <point x="546" y="1506" type="curve"/>
      <point x="546" y="1602" type="line"/>
      <point x="308" y="1602"/>
      <point x="186" y="1422"/>
      <point x="186" y="1219" type="curve" smooth="yes"/>
      <point x="186" y="1087"/>
      <point x="246" y="991"/>
    </contour>
    <contour>
      <point x="865" y="991" type="curve" smooth="yes"/>
      <point x="971" y="991"/>
      <point x="1054" y="1064"/>
      <point x="1054" y="1169" type="curve" smooth="yes"/>
      <point x="1054" y="1288"/>
      <point x="982" y="1352"/>
      <point x="891" y="1358" type="curve"/>
      <point x="895" y="1444"/>
      <point x="959" y="1506"/>
      <point x="1040" y="1506" type="curve"/>
      <point x="1040" y="1602" type="line"/>
      <point x="804" y="1602"/>
      <point x="680" y="1422"/>
      <point x="680" y="1219" type="curve" smooth="yes"/>
      <point x="680" y="1095"/>
      <point x="741" y="991"/>
    </contour>
  </outline>
</glyph>
<glyph name="daggerdbl" format="1">
  <advance width="1382"/>
  <unicode hex="2021"/>
  <outline>
    <contour>
      <point x="686" y="-39" type="curve" smooth="yes"/>
      <point x="778" y="-39"/>
      <point x="861" y="19"/>
      <point x="861" y="125" type="curve" smooth="yes"/>
      <point x="861" y="218"/>
      <point x="801" y="355"/>
      <point x="748" y="479" type="curve"/>
      <point x="832" y="447"/>
      <point x="952" y="386"/>
      <point x="1060" y="386" type="curve" smooth="yes"/>
      <point x="1134" y="386"/>
      <point x="1173" y="453"/>
      <point x="1173" y="520" type="curve" smooth="yes"/>
      <point x="1173" y="593"/>
      <point x="1132" y="655"/>
      <point x="1052" y="655" type="curve" smooth="yes"/>
      <point x="977" y="655"/>
      <point x="866" y="610"/>
      <point x="753" y="565" type="curve"/>
      <point x="753" y="997" type="line"/>
      <point x="865" y="953"/>
      <point x="975" y="908"/>
      <point x="1051" y="908" type="curve" smooth="yes"/>
      <point x="1130" y="908"/>
      <point x="1173" y="968"/>
      <point x="1173" y="1038" type="curve" smooth="yes"/>
      <point x="1173" y="1115"/>
      <point x="1134" y="1177"/>
      <point x="1056" y="1177" type="curve" smooth="yes"/>
      <point x="980" y="1177"/>
      <point x="866" y="1130"/>
      <point x="748" y="1084" type="curve"/>
      <point x="801" y="1214"/>
      <point x="861" y="1346"/>
      <point x="861" y="1439" type="curve" smooth="yes"/>
      <point x="861" y="1543"/>
      <point x="778" y="1602"/>
      <point x="686" y="1602" type="curve" smooth="yes"/>
      <point x="594" y="1602"/>
      <point x="513" y="1545"/>
      <point x="513" y="1438" type="curve" smooth="yes"/>
      <point x="513" y="1341"/>
      <point x="578" y="1183"/>
      <point x="622" y="1089" type="curve"/>
      <point x="499" y="1139"/>
      <point x="398" y="1177"/>
      <point x="328" y="1177" type="curve" smooth="yes"/>
      <point x="248" y="1177"/>
      <point x="206" y="1114"/>
      <point x="206" y="1041" type="curve" smooth="yes"/>
      <point x="206" y="968"/>
      <point x="247" y="908"/>
      <point x="329" y="908" type="curve" smooth="yes"/>
      <point x="397" y="908"/>
      <point x="497" y="945"/>
      <point x="619" y="994" type="curve"/>
      <point x="619" y="569" type="line"/>
      <point x="498" y="617"/>
      <point x="398" y="655"/>
      <point x="329" y="655" type="curve" smooth="yes"/>
      <point x="247" y="655"/>
      <point x="206" y="595"/>
      <point x="206" y="521" type="curve" smooth="yes"/>
      <point x="206" y="448"/>
      <point x="249" y="386"/>
      <point x="328" y="386" type="curve" smooth="yes"/>
      <point x="398" y="386"/>
      <point x="500" y="425"/>
      <point x="622" y="474" type="curve"/>
      <point x="563" y="327"/>
      <point x="513" y="217"/>
      <point x="513" y="125" type="curve" smooth="yes"/>
      <point x="513" y="18"/>
      <point x="594" y="-39"/>
    </contour>
  </outline>
</glyph>
<glyph name="ellipsis" format="1">
  <advance width="1889"/>
  <unicode hex="2026"/>
  <outline>
    <contour>
      <point x="323" y="-38" type="curve" smooth="yes"/>
      <point x="419" y="-38"/>
      <point x="500" y="30"/>
      <point x="500" y="148" type="curve" smooth="yes"/>
      <point x="500" y="265"/>
      <point x="416" y="335"/>
      <point x="323" y="335" type="curve" smooth="yes"/>
      <point x="226" y="335"/>
      <point x="145" y="266"/>
      <point x="145" y="148" type="curve" smooth="yes"/>
      <point x="145" y="30"/>
      <point x="229" y="-38"/>
    </contour>
    <contour>
      <point x="944" y="-38" type="curve" smooth="yes"/>
      <point x="1040" y="-38"/>
      <point x="1121" y="30"/>
      <point x="1121" y="148" type="curve" smooth="yes"/>
      <point x="1121" y="269"/>
      <point x="1037" y="335"/>
      <point x="943" y="335" type="curve" smooth="yes"/>
      <point x="849" y="335"/>
      <point x="766" y="266"/>
      <point x="766" y="149" type="curve" smooth="yes"/>
      <point x="766" y="32"/>
      <point x="849" y="-38"/>
    </contour>
    <contour>
      <point x="1564" y="-38" type="curve" smooth="yes"/>
      <point x="1660" y="-38"/>
      <point x="1741" y="30"/>
      <point x="1741" y="148" type="curve" smooth="yes"/>
      <point x="1741" y="262"/>
      <point x="1659" y="335"/>
      <point x="1570" y="335" type="curve" smooth="yes"/>
      <point x="1468" y="335"/>
      <point x="1387" y="269"/>
      <point x="1387" y="148" type="curve" smooth="yes"/>
      <point x="1387" y="28"/>
      <point x="1470" y="-38"/>
    </contour>
  </outline>
</glyph>
<glyph name="perthousand" format="1">
  <advance width="3696"/>
  <unicode hex="2030"/>
  <outline>
    <contour>
      <point x="3100" y="145" type="curve" smooth="yes"/>
      <point x="2854" y="145"/>
      <point x="2700" y="181"/>
      <point x="2695" y="459" type="curve" smooth="yes"/>
      <point x="2693" y="485"/>
      <point x="2693" y="723"/>
      <point x="2693" y="759" type="curve" smooth="yes"/>
      <point x="2693" y="1035"/>
      <point x="2863" y="1072"/>
      <point x="3100" y="1072" type="curve" smooth="yes"/>
      <point x="3345" y="1072"/>
      <point x="3502" y="1034"/>
      <point x="3507" y="757" type="curve" smooth="yes"/>
      <point x="3508" y="731"/>
      <point x="3509" y="494"/>
      <point x="3509" y="458" type="curve" smooth="yes"/>
      <point x="3509" y="187"/>
      <point x="3338" y="145"/>
    </contour>
    <contour>
      <point x="3094" y="326" type="curve" smooth="yes"/>
      <point x="3178" y="326"/>
      <point x="3210" y="333"/>
      <point x="3210" y="416" type="curve" smooth="yes"/>
      <point x="3210" y="793" type="line" smooth="yes"/>
      <point x="3210" y="889"/>
      <point x="3182" y="891"/>
      <point x="3101" y="891" type="curve" smooth="yes"/>
      <point x="3024" y="891"/>
      <point x="2992" y="890"/>
      <point x="2992" y="795" type="curve" smooth="yes"/>
      <point x="2992" y="771"/>
      <point x="2991" y="435"/>
      <point x="2991" y="418" type="curve" smooth="yes"/>
      <point x="2991" y="332"/>
      <point x="3023" y="326"/>
    </contour>
    <component base="percent"/>
  </outline>
</glyph>
<glyph name="guilsinglleft" format="1">
  <advance width="1048"/>
  <unicode hex="2039"/>
  <outline>
    <contour>
      <point x="814" y="216" type="curve" smooth="yes"/>
      <point x="856" y="216"/>
      <point x="888" y="253"/>
      <point x="888" y="295" type="curve" smooth="yes"/>
      <point x="888" y="316"/>
      <point x="882" y="338"/>
      <point x="865" y="358" type="curve" smooth="yes"/>
      <point x="497" y="779" type="line"/>
      <point x="865" y="1200" type="line" smooth="yes"/>
      <point x="883" y="1222"/>
      <point x="889" y="1245"/>
      <point x="889" y="1263" type="curve" smooth="yes"/>
      <point x="889" y="1308"/>
      <point x="858" y="1343"/>
      <point x="815" y="1341" type="curve" smooth="yes"/>
      <point x="798" y="1343"/>
      <point x="777" y="1336"/>
      <point x="755" y="1320" type="curve" smooth="yes"/>
      <point x="239" y="935" type="line" smooth="yes"/>
      <point x="185" y="895"/>
      <point x="157" y="838"/>
      <point x="157" y="778" type="curve"/>
      <point x="157" y="721"/>
      <point x="183" y="663"/>
      <point x="239" y="622" type="curve" smooth="yes"/>
      <point x="755" y="238" type="line" smooth="yes"/>
      <point x="776" y="222"/>
      <point x="796" y="216"/>
    </contour>
  </outline>
</glyph>
<glyph name="guilsinglright" format="1">
  <advance width="1043"/>
  <unicode hex="203A"/>
  <outline>
    <contour>
      <point x="227" y="216" type="curve" smooth="yes"/>
      <point x="245" y="216"/>
      <point x="266" y="222"/>
      <point x="286" y="238" type="curve" smooth="yes"/>
      <point x="802" y="622" type="line" smooth="yes"/>
      <point x="858" y="663"/>
      <point x="884" y="721"/>
      <point x="884" y="778" type="curve"/>
      <point x="884" y="838"/>
      <point x="856" y="895"/>
      <point x="802" y="935" type="curve" smooth="yes"/>
      <point x="286" y="1320" type="line" smooth="yes"/>
      <point x="264" y="1336"/>
      <point x="243" y="1343"/>
      <point x="226" y="1341" type="curve" smooth="yes"/>
      <point x="184" y="1343"/>
      <point x="152" y="1308"/>
      <point x="152" y="1263" type="curve" smooth="yes"/>
      <point x="152" y="1245"/>
      <point x="158" y="1222"/>
      <point x="177" y="1200" type="curve" smooth="yes"/>
      <point x="544" y="779" type="line"/>
      <point x="177" y="358" type="line" smooth="yes"/>
      <point x="160" y="338"/>
      <point x="153" y="316"/>
      <point x="153" y="295" type="curve" smooth="yes"/>
      <point x="153" y="253"/>
      <point x="185" y="216"/>
    </contour>
  </outline>
</glyph>
<glyph name="Euro" format="1">
  <advance width="1357"/>
  <unicode hex="20AC"/>
  <outline>
    <contour>
      <point x="835" y="-35" type="curve" smooth="yes"/>
      <point x="1147" y="-35"/>
      <point x="1438" y="12"/>
      <point x="1450" y="356" type="curve" smooth="yes"/>
      <point x="1451" y="367"/>
      <point x="1452" y="467"/>
      <point x="1453" y="480" type="curve"/>
      <point x="995" y="489" type="line"/>
      <point x="992" y="446"/>
      <point x="992" y="239"/>
      <point x="978" y="222" type="curve" smooth="yes"/>
      <point x="965" y="205"/>
      <point x="879" y="198"/>
      <point x="821" y="198" type="curve" smooth="yes"/>
      <point x="719" y="198"/>
      <point x="636" y="216"/>
      <point x="633" y="252" type="curve" smooth="yes"/>
      <point x="631" y="281"/>
      <point x="630" y="557"/>
      <point x="630" y="587" type="curve"/>
      <point x="966" y="587" type="line"/>
      <point x="986" y="721" type="line"/>
      <point x="630" y="721" type="line"/>
      <point x="630" y="834" type="line"/>
      <point x="966" y="834" type="line"/>
      <point x="986" y="968" type="line"/>
      <point x="630" y="968" type="line"/>
      <point x="631" y="999"/>
      <point x="632" y="1273"/>
      <point x="633" y="1304" type="curve" smooth="yes"/>
      <point x="636" y="1353"/>
      <point x="736" y="1357"/>
      <point x="821" y="1357" type="curve" smooth="yes"/>
      <point x="868" y="1357"/>
      <point x="952" y="1357"/>
      <point x="968" y="1343" type="curve" smooth="yes"/>
      <point x="984" y="1330"/>
      <point x="989" y="1120"/>
      <point x="994" y="1067" type="curve"/>
      <point x="1452" y="1079" type="line"/>
      <point x="1452" y="1088"/>
      <point x="1451" y="1194"/>
      <point x="1450" y="1202" type="curve" smooth="yes"/>
      <point x="1436" y="1554"/>
      <point x="1143" y="1594"/>
      <point x="827" y="1594" type="curve" smooth="yes"/>
      <point x="473" y="1594"/>
      <point x="174" y="1544"/>
      <point x="165" y="1172" type="curve" smooth="yes"/>
      <point x="164" y="1158"/>
      <point x="163" y="985"/>
      <point x="163" y="968" type="curve"/>
      <point x="26" y="968" type="line"/>
      <point x="6" y="834" type="line"/>
      <point x="162" y="834" type="line"/>
      <point x="162" y="721" type="line"/>
      <point x="26" y="721" type="line"/>
      <point x="6" y="587" type="line"/>
      <point x="163" y="587" type="line"/>
      <point x="163" y="573"/>
      <point x="164" y="404"/>
      <point x="165" y="392" type="curve" smooth="yes"/>
      <point x="175" y="25"/>
      <point x="493" y="-35"/>
    </contour>
  </outline>
</glyph>
<glyph name="uni2113" format="1">
  <advance width="1294"/>
  <unicode hex="2113"/>
  <outline>
    <contour>
      <point x="752" y="-22" type="curve" smooth="yes"/>
      <point x="852" y="-24"/>
      <point x="1012" y="-5"/>
      <point x="1013" y="-5" type="curve"/>
      <point x="1013" y="194" type="line"/>
      <point x="907" y="191"/>
      <point x="844" y="201"/>
      <point x="804" y="219" type="curve" smooth="yes"/>
      <point x="726" y="238"/>
      <point x="716" y="280"/>
      <point x="716" y="337" type="curve" smooth="yes"/>
      <point x="716" y="764" type="line"/>
      <point x="1105" y="998"/>
      <point x="1323" y="1238"/>
      <point x="1271" y="1521" type="curve" smooth="yes"/>
      <point x="1236" y="1710"/>
      <point x="1063" y="1811"/>
      <point x="867" y="1810" type="curve" smooth="yes"/>
      <point x="594" y="1809"/>
      <point x="286" y="1622"/>
      <point x="286" y="1170" type="curve" smooth="yes"/>
      <point x="286" y="701" type="line"/>
      <point x="119" y="582" type="line"/>
      <point x="119" y="397" type="line"/>
      <point x="286" y="525" type="line"/>
      <point x="286" y="318" type="line" smooth="yes"/>
      <point x="286" y="30"/>
      <point x="436" y="-20"/>
    </contour>
    <contour>
      <point x="714" y="960" type="curve"/>
      <point x="714" y="1273" type="line" smooth="yes"/>
      <point x="714" y="1509"/>
      <point x="781" y="1597"/>
      <point x="907" y="1601" type="curve" smooth="yes"/>
      <point x="1007" y="1603"/>
      <point x="1050" y="1555"/>
      <point x="1060" y="1471" type="curve" smooth="yes"/>
      <point x="1095" y="1201"/>
      <point x="808" y="1022"/>
    </contour>
  </outline>
</glyph>
<glyph name="trademark" format="1">
  <advance width="1661"/>
  <unicode hex="2122"/>
  <outline>
    <contour>
      <point x="699" y="729" type="line"/>
      <point x="981" y="729" type="line"/>
      <point x="981" y="1065" type="line"/>
      <point x="1078" y="729" type="line"/>
      <point x="1183" y="729" type="line"/>
      <point x="1281" y="1065" type="line"/>
      <point x="1281" y="729" type="line"/>
      <point x="1566" y="729" type="line"/>
      <point x="1566" y="1559" type="line"/>
      <point x="1225" y="1559" type="line"/>
      <point x="1135" y="1116" type="line"/>
      <point x="1037" y="1559" type="line"/>
      <point x="699" y="1559" type="line"/>
    </contour>
    <contour>
      <point x="183" y="729" type="line"/>
      <point x="473" y="729" type="line"/>
      <point x="473" y="1437" type="line"/>
      <point x="633" y="1437" type="line"/>
      <point x="633" y="1559" type="line"/>
      <point x="24" y="1559" type="line"/>
      <point x="24" y="1437" type="line"/>
      <point x="183" y="1437" type="line"/>
    </contour>
  </outline>
</glyph>
<glyph name="estimated" format="1">
  <advance width="1356"/>
  <unicode hex="212E"/>
  <outline>
    <contour>
      <point x="724" y="-20" type="curve" smooth="yes"/>
      <point x="931" y="-20"/>
      <point x="1066" y="70"/>
      <point x="1166" y="188" type="curve"/>
      <point x="1114" y="239" type="line"/>
      <point x="1016" y="134"/>
      <point x="904" y="53"/>
      <point x="724" y="53" type="curve" smooth="yes"/>
      <point x="494" y="53"/>
      <point x="411" y="245"/>
      <point x="410" y="521" type="curve"/>
      <point x="1174" y="521" type="line"/>
      <point x="1174" y="869"/>
      <point x="1026" y="1102"/>
      <point x="706" y="1102" type="curve" smooth="yes"/>
      <point x="383" y="1102"/>
      <point x="153" y="861"/>
      <point x="153" y="541" type="curve" smooth="yes"/>
      <point x="153" y="221"/>
      <point x="341" y="-20"/>
    </contour>
    <contour>
      <point x="412" y="601" type="line"/>
      <point x="427" y="863"/>
      <point x="539" y="1042"/>
      <point x="712" y="1042" type="curve" smooth="yes"/>
      <point x="921" y="1042"/>
      <point x="962" y="836"/>
      <point x="962" y="601" type="curve"/>
    </contour>
  </outline>
</glyph>
<glyph name="partialdiff" format="1">
  <advance width="1319"/>
  <unicode hex="2202"/>
  <outline>
    <contour>
      <point x="600" y="-24" type="curve" smooth="yes"/>
      <point x="1060" y="-24"/>
      <point x="1155" y="360"/>
      <point x="1155" y="674" type="curve" smooth="yes"/>
      <point x="1155" y="1101"/>
      <point x="977" y="1432"/>
      <point x="398" y="1432" type="curve"/>
      <point x="377" y="1245" type="line"/>
      <point x="765" y="1245"/>
      <point x="890" y="1037"/>
      <point x="895" y="803" type="curve"/>
      <point x="859" y="863"/>
      <point x="783" y="908"/>
      <point x="676" y="908" type="curve" smooth="yes"/>
      <point x="335" y="908"/>
      <point x="183" y="636"/>
      <point x="183" y="395" type="curve" smooth="yes"/>
      <point x="183" y="158"/>
      <point x="321" y="-24"/>
    </contour>
    <contour>
      <point x="634" y="188" type="curve" smooth="yes"/>
      <point x="538" y="188"/>
      <point x="461" y="263"/>
      <point x="461" y="399" type="curve" smooth="yes"/>
      <point x="461" y="503"/>
      <point x="515" y="694"/>
      <point x="679" y="694" type="curve" smooth="yes"/>
      <point x="748" y="694"/>
      <point x="797" y="658"/>
      <point x="861" y="572" type="curve"/>
      <point x="862" y="563"/>
      <point x="862" y="554"/>
      <point x="862" y="545" type="curve" smooth="yes"/>
      <point x="862" y="446"/>
      <point x="817" y="188"/>
    </contour>
  </outline>
</glyph>
<glyph name="emptyset" format="1">
  <advance width="1797"/>
  <unicode hex="2205"/>
  <outline>
    <contour>
      <point x="325" y="-81" type="line"/>
      <point x="475" y="97" type="line"/>
      <point x="595" y="18"/>
      <point x="740" y="-25"/>
      <point x="896" y="-25" type="curve" smooth="yes"/>
      <point x="1297" y="-25"/>
      <point x="1625" y="297"/>
      <point x="1625" y="696" type="curve" smooth="yes"/>
      <point x="1625" y="895"/>
      <point x="1544" y="1073"/>
      <point x="1415" y="1204" type="curve"/>
      <point x="1566" y="1382" type="line"/>
      <point x="1476" y="1460" type="line"/>
      <point x="1325" y="1281" type="line"/>
      <point x="1204" y="1367"/>
      <point x="1056" y="1419"/>
      <point x="896" y="1419" type="curve" smooth="yes"/>
      <point x="497" y="1419"/>
      <point x="169" y="1127"/>
      <point x="169" y="696" type="curve" smooth="yes"/>
      <point x="169" y="474"/>
      <point x="252" y="292"/>
      <point x="387" y="167" type="curve"/>
      <point x="242" y="-6" type="line"/>
    </contour>
    <contour>
      <point x="479" y="276" type="line"/>
      <point x="378" y="378"/>
      <point x="318" y="524"/>
      <point x="318" y="695" type="curve" smooth="yes"/>
      <point x="318" y="1037"/>
      <point x="567" y="1285"/>
      <point x="896" y="1285" type="curve" smooth="yes"/>
      <point x="1024" y="1285"/>
      <point x="1141" y="1243"/>
      <point x="1235" y="1174" type="curve"/>
    </contour>
    <contour>
      <point x="895" y="109" type="curve" smooth="yes"/>
      <point x="771" y="109"/>
      <point x="658" y="142"/>
      <point x="566" y="204" type="curve"/>
      <point x="1322" y="1095" type="line"/>
      <point x="1418" y="988"/>
      <point x="1476" y="846"/>
      <point x="1476" y="695" type="curve" smooth="yes"/>
      <point x="1476" y="382"/>
      <point x="1225" y="109"/>
    </contour>
  </outline>
</glyph>
<glyph name="minus" format="1">
  <advance width="1264"/>
  <unicode hex="2212"/>
  <outline>
    <contour>
      <point x="131" y="615" type="line"/>
      <point x="1134" y="615" type="line"/>
      <point x="1134" y="811" type="line"/>
      <point x="131" y="811" type="line"/>
    </contour>
  </outline>
</glyph>
<glyph name="uni2219" format="1">
  <advance width="1271"/>
  <unicode hex="2219"/>
  <outline>
    <contour>
      <point x="655" y="501" type="curve" smooth="yes"/>
      <point x="747" y="501"/>
      <point x="822" y="566"/>
      <point x="822" y="678" type="curve" smooth="yes"/>
      <point x="822" y="790"/>
      <point x="744" y="855"/>
      <point x="655" y="855" type="curve" smooth="yes"/>
      <point x="563" y="855"/>
      <point x="486" y="791"/>
      <point x="486" y="678" type="curve" smooth="yes"/>
      <point x="486" y="566"/>
      <point x="566" y="501"/>
    </contour>
  </outline>
</glyph>
<glyph name="radical" format="1">
  <advance width="1418"/>
  <unicode hex="221A"/>
  <outline>
    <contour>
      <point x="526" y="0" type="line"/>
      <point x="675" y="0" type="line"/>
      <point x="1308" y="1464" type="line"/>
      <point x="1078" y="1464" type="line"/>
      <point x="582" y="251" type="line"/>
      <point x="365" y="658" type="line"/>
      <point x="140" y="658" type="line"/>
    </contour>
  </outline>
</glyph>
<glyph name="infinity" format="1">
  <advance width="1728"/>
  <unicode hex="221E"/>
  <outline>
    <contour>
      <point x="1233" y="296" type="curve" smooth="yes"/>
      <point x="1490" y="295"/>
      <point x="1619" y="518"/>
      <point x="1619" y="738" type="curve" smooth="yes"/>
      <point x="1619" y="952"/>
      <point x="1497" y="1164"/>
      <point x="1249" y="1170" type="curve" smooth="yes"/>
      <point x="1103" y="1173"/>
      <point x="941" y="1084"/>
      <point x="850" y="953" type="curve"/>
      <point x="788" y="1074"/>
      <point x="643" y="1159"/>
      <point x="497" y="1159" type="curve" smooth="yes"/>
      <point x="233" y="1159"/>
      <point x="101" y="945"/>
      <point x="101" y="732" type="curve" smooth="yes"/>
      <point x="101" y="516"/>
      <point x="234" y="300"/>
      <point x="499" y="300" type="curve" smooth="yes"/>
      <point x="641" y="300"/>
      <point x="776" y="395"/>
      <point x="823" y="533" type="curve"/>
      <point x="898" y="393"/>
      <point x="1065" y="296"/>
    </contour>
    <contour>
      <point x="497" y="516" type="curve" smooth="yes"/>
      <point x="356" y="516"/>
      <point x="286" y="622"/>
      <point x="286" y="729" type="curve" smooth="yes"/>
      <point x="286" y="834"/>
      <point x="355" y="939"/>
      <point x="493" y="939" type="curve" smooth="yes"/>
      <point x="597" y="939"/>
      <point x="707" y="836"/>
      <point x="759" y="689" type="curve"/>
      <point x="703" y="587"/>
      <point x="595" y="516"/>
    </contour>
    <contour>
      <point x="1229" y="509" type="curve" smooth="yes"/>
      <point x="1099" y="509"/>
      <point x="972" y="632"/>
      <point x="917" y="809" type="curve"/>
      <point x="977" y="889"/>
      <point x="1092" y="942"/>
      <point x="1203" y="942" type="curve" smooth="yes"/>
      <point x="1290" y="942"/>
      <point x="1434" y="894"/>
      <point x="1434" y="719" type="curve" smooth="yes"/>
      <point x="1434" y="612"/>
      <point x="1366" y="509"/>
    </contour>
  </outline>
</glyph>
<glyph name="integral" format="1">
  <advance width="1248"/>
  <unicode hex="222B"/>
  <outline>
    <contour>
      <point x="438" y="-304" type="curve" smooth="yes"/>
      <point x="619" y="-304"/>
      <point x="735" y="-255"/>
      <point x="760" y="36" type="curve" smooth="yes"/>
      <point x="873" y="1343" type="line" smooth="yes"/>
      <point x="885" y="1479"/>
      <point x="900" y="1504"/>
      <point x="985" y="1504" type="curve" smooth="yes"/>
      <point x="1015" y="1504"/>
      <point x="1056" y="1492"/>
      <point x="1087" y="1475" type="curve"/>
      <point x="1156" y="1623" type="line"/>
      <point x="1112" y="1648"/>
      <point x="1029" y="1674"/>
      <point x="973" y="1674" type="curve" smooth="yes"/>
      <point x="792" y="1674"/>
      <point x="677" y="1625"/>
      <point x="652" y="1334" type="curve" smooth="yes"/>
      <point x="538" y="27" type="line" smooth="yes"/>
      <point x="526" y="-109"/>
      <point x="511" y="-134"/>
      <point x="426" y="-134" type="curve" smooth="yes"/>
      <point x="396" y="-134"/>
      <point x="355" y="-123"/>
      <point x="324" y="-105" type="curve"/>
      <point x="255" y="-254" type="line"/>
      <point x="299" y="-278"/>
      <point x="382" y="-304"/>
    </contour>
  </outline>
</glyph>
<glyph name="approxequal" format="1">
  <advance width="1267"/>
  <unicode hex="2248"/>
  <outline>
    <contour>
      <point x="950" y="347" type="curve" smooth="yes"/>
      <point x="1080" y="335"/>
      <point x="1134" y="398"/>
      <point x="1138" y="631" type="curve"/>
      <point x="996" y="631" type="line"/>
      <point x="991" y="552"/>
      <point x="959" y="526"/>
      <point x="906" y="526" type="curve" smooth="yes"/>
      <point x="799" y="526"/>
      <point x="605" y="627"/>
      <point x="380" y="646" type="curve" smooth="yes"/>
      <point x="259" y="657"/>
      <point x="172" y="593"/>
      <point x="166" y="354" type="curve"/>
      <point x="313" y="354" type="line"/>
      <point x="312" y="439"/>
      <point x="346" y="468"/>
      <point x="405" y="468" type="curve" smooth="yes"/>
      <point x="520" y="468"/>
      <point x="764" y="362"/>
    </contour>
    <contour>
      <point x="929" y="749" type="curve" smooth="yes"/>
      <point x="1059" y="737"/>
      <point x="1114" y="800"/>
      <point x="1118" y="1032" type="curve"/>
      <point x="975" y="1032" type="line"/>
      <point x="970" y="953"/>
      <point x="938" y="927"/>
      <point x="885" y="927" type="curve" smooth="yes"/>
      <point x="778" y="927"/>
      <point x="584" y="1028"/>
      <point x="359" y="1047" type="curve" smooth="yes"/>
      <point x="239" y="1058"/>
      <point x="152" y="995"/>
      <point x="145" y="756" type="curve"/>
      <point x="292" y="756" type="line"/>
      <point x="291" y="841"/>
      <point x="325" y="870"/>
      <point x="384" y="870" type="curve" smooth="yes"/>
      <point x="499" y="870"/>
      <point x="743" y="764"/>
    </contour>
  </outline>
</glyph>
<glyph name="greaterequal" format="1">
  <advance width="1229"/>
  <unicode hex="2265"/>
  <outline>
    <contour>
      <point x="156" y="345" type="line"/>
      <point x="1063" y="641" type="line"/>
      <point x="1063" y="964" type="line"/>
      <point x="156" y="1283" type="line"/>
      <point x="156" y="956" type="line"/>
      <point x="798" y="809" type="line"/>
      <point x="156" y="670" type="line"/>
    </contour>
    <contour>
      <point x="158" y="0" type="line"/>
      <point x="1073" y="0" type="line"/>
      <point x="1073" y="253" type="line"/>
      <point x="158" y="253" type="line"/>
    </contour>
  </outline>
</glyph>
<glyph name="lozenge" format="1">
  <advance width="1202"/>
  <unicode hex="25CA"/>
  <outline>
    <contour>
      <point x="479" y="0" type="line"/>
      <point x="711" y="0" type="line"/>
      <point x="1126" y="763" type="line"/>
      <point x="711" y="1512" type="line"/>
      <point x="479" y="1512" type="line"/>
      <point x="75" y="763" type="line"/>
    </contour>
    <contour>
      <point x="602" y="264" type="line"/>
      <point x="342" y="763" type="line"/>
      <point x="602" y="1250" type="line"/>
      <point x="866" y="763" type="line"/>
    </contour>
  </outline>
</glyph>
<glyph name="foundryicon" format="1">
  <advance width="1374"/>
  <outline>
    <contour>
      <point x="494" y="405" type="line"/>
      <point x="494" y="672" type="line"/>
      <point x="600" y="672" type="line"/>
      <point x="770" y="523" type="line"/>
      <point x="770" y="672" type="line"/>
      <point x="876" y="672" type="line"/>
      <point x="876" y="405" type="line"/>
      <point x="770" y="405" type="line"/>
      <point x="600" y="552" type="line"/>
      <point x="600" y="405" type="line"/>
    </contour>
    <contour>
      <point x="289" y="2" type="line"/>
      <point x="678" y="278" type="line"/>
      <point x="1075" y="2" type="line"/>
      <point x="931" y="461" type="line"/>
      <point x="1322" y="755" type="line"/>
      <point x="837" y="755" type="line"/>
      <point x="678" y="1215" type="line"/>
      <point x="528" y="755" type="line"/>
      <point x="43" y="755" type="line"/>
      <point x="432" y="461" type="line"/>
    </contour>
  </outline>
</glyph>
